<svg width="484" height="103" viewBox="0 0 484 103" fill="none" xmlns="http://www.w3.org/2000/svg">
<path d="M48.7387 56.8187C50.3147 54.4013 53.552 53.7187 55.9693 55.2933C58.3867 56.8693 59.0693 60.1067 57.4947 62.524C55.9187 64.9427 52.6813 65.6253 50.264 64.0493C47.8453 62.4747 47.1627 59.236 48.7387 56.8187ZM98.096 31.1067H71.3293V4.34003C71.3293 1.94269 69.3867 -1.14459e-05 66.9893 -1.14459e-05H35.4453C33.0493 -1.14459e-05 31.1067 1.94269 31.1067 4.34003V31.1067H4.34C1.9428 31.1067 0 33.0493 0 35.4467V66.9893C0 69.3867 1.9428 71.3293 4.34 71.3293H23.0067C17.908 65.8627 14.7467 60.3347 14.7467 54.3747C14.7467 46.6293 19.9813 36.8107 30.0733 36.8107C40.1627 36.8107 44.2973 45.0467 44.2973 45.0467C44.2973 45.0467 48.432 36.8107 58.5227 36.8107C68.612 36.8107 73.8493 46.6293 73.8493 54.3747C73.8493 64.38 64.9547 73.1653 52.904 82.4947C52.9013 82.492 52.8973 82.488 52.8947 82.4853C51.9707 81.7907 51.012 81.308 50.0853 80.8427C49.388 80.492 48.7307 80.16 48.1413 79.764C47.1413 79.0893 46.0813 77.892 46.108 76.548C46.1373 75.0133 47.504 73.6987 48.8267 72.4253C49.7173 71.568 50.412 70.7227 50.94 69.884C55.044 70.7573 59.444 69.1027 61.872 65.3773C65.0227 60.5413 63.6573 54.0667 58.8227 50.916C53.9867 47.7653 47.512 49.1307 44.3613 53.9667C41.2107 58.8013 42.576 65.276 47.412 68.4267C47.444 68.448 47.4787 68.464 47.512 68.4853C47.1907 68.9133 46.7973 69.356 46.316 69.8187C44.7253 71.3507 42.548 73.4467 42.4893 76.4787C42.444 78.8533 43.8013 81.2027 46.1213 82.7653C46.9013 83.2907 47.692 83.688 48.4587 84.0747C48.9467 84.32 49.408 84.5653 49.8493 84.8227C48.048 86.1773 46.192 87.548 44.2973 88.936C39.5733 85.4733 35.0907 82.132 31.1067 78.8307V98.0947C31.1067 100.492 33.0493 102.435 35.4453 102.435H66.9893C69.3867 102.435 71.3293 100.492 71.3293 98.0947V71.3293H98.096C100.493 71.3293 102.436 69.3867 102.436 66.9893V35.4467C102.436 33.0493 100.493 31.1067 98.096 31.1067" fill="url(#paint0_linear_14_184)"/>
<path d="M161.555 35.275V67H152.735V49.495L146.75 67H139.37L133.34 49.36V67H124.52V35.275H135.185L143.15 55.885L150.935 35.275H161.555ZM190.696 54.085C190.696 54.775 190.651 55.465 190.561 56.155H173.866C173.956 57.535 174.331 58.57 174.991 59.26C175.681 59.92 176.551 60.25 177.601 60.25C179.071 60.25 180.121 59.59 180.751 58.27H190.156C189.766 60.01 189.001 61.57 187.861 62.95C186.751 64.3 185.341 65.365 183.631 66.145C181.921 66.925 180.031 67.315 177.961 67.315C175.471 67.315 173.251 66.79 171.301 65.74C169.381 64.69 167.866 63.19 166.756 61.24C165.676 59.29 165.136 56.995 165.136 54.355C165.136 51.715 165.676 49.435 166.756 47.515C167.836 45.565 169.336 44.065 171.256 43.015C173.206 41.965 175.441 41.44 177.961 41.44C180.451 41.44 182.656 41.95 184.576 42.97C186.496 43.99 187.996 45.46 189.076 47.38C190.156 49.27 190.696 51.505 190.696 54.085ZM181.696 51.88C181.696 50.8 181.336 49.96 180.616 49.36C179.896 48.73 178.996 48.415 177.916 48.415C176.836 48.415 175.951 48.715 175.261 49.315C174.571 49.885 174.121 50.74 173.911 51.88H181.696ZM218.425 54.085C218.425 54.775 218.38 55.465 218.29 56.155H201.595C201.685 57.535 202.06 58.57 202.72 59.26C203.41 59.92 204.28 60.25 205.33 60.25C206.8 60.25 207.85 59.59 208.48 58.27H217.885C217.495 60.01 216.73 61.57 215.59 62.95C214.48 64.3 213.07 65.365 211.36 66.145C209.65 66.925 207.76 67.315 205.69 67.315C203.2 67.315 200.98 66.79 199.03 65.74C197.11 64.69 195.595 63.19 194.485 61.24C193.405 59.29 192.865 56.995 192.865 54.355C192.865 51.715 193.405 49.435 194.485 47.515C195.565 45.565 197.065 44.065 198.985 43.015C200.935 41.965 203.17 41.44 205.69 41.44C208.18 41.44 210.385 41.95 212.305 42.97C214.225 43.99 215.725 45.46 216.805 47.38C217.885 49.27 218.425 51.505 218.425 54.085ZM209.425 51.88C209.425 50.8 209.065 49.96 208.345 49.36C207.625 48.73 206.725 48.415 205.645 48.415C204.565 48.415 203.68 48.715 202.99 49.315C202.3 49.885 201.85 50.74 201.64 51.88H209.425ZM236.93 59.485V67H233.105C226.655 67 223.43 63.805 223.43 57.415V49.09H220.325V41.755H223.43V35.635H232.295V41.755H236.885V49.09H232.295V57.55C232.295 58.24 232.445 58.735 232.745 59.035C233.075 59.335 233.615 59.485 234.365 59.485H236.93ZM286.623 35.275V67H277.803V49.495L271.818 67H264.438L258.408 49.36V67H249.588V35.275H260.253L268.218 55.885L276.003 35.275H286.623ZM318.824 41.755L302.804 79.015H293.219L299.249 65.92L288.899 41.755H298.709L304.019 56.065L309.149 41.755H318.824ZM342.3 35.275C345.63 35.275 348.54 35.95 351.03 37.3C353.55 38.62 355.485 40.48 356.835 42.88C358.185 45.28 358.86 48.025 358.86 51.115C358.86 54.175 358.17 56.905 356.79 59.305C355.44 61.705 353.505 63.595 350.985 64.975C348.495 66.325 345.6 67 342.3 67H329.745V35.275H342.3ZM341.625 59.215C344.205 59.215 346.23 58.51 347.7 57.1C349.17 55.69 349.905 53.695 349.905 51.115C349.905 48.505 349.17 46.495 347.7 45.085C346.23 43.645 344.205 42.925 341.625 42.925H338.565V59.215H341.625ZM374.58 67.315C372.06 67.315 369.795 66.79 367.785 65.74C365.805 64.69 364.245 63.19 363.105 61.24C361.965 59.29 361.395 56.995 361.395 54.355C361.395 51.745 361.965 49.465 363.105 47.515C364.275 45.565 365.85 44.065 367.83 43.015C369.84 41.965 372.105 41.44 374.625 41.44C377.145 41.44 379.395 41.965 381.375 43.015C383.385 44.065 384.96 45.565 386.1 47.515C387.27 49.465 387.855 51.745 387.855 54.355C387.855 56.965 387.27 59.26 386.1 61.24C384.96 63.19 383.385 64.69 381.375 65.74C379.365 66.79 377.1 67.315 374.58 67.315ZM374.58 59.665C375.81 59.665 376.83 59.215 377.64 58.315C378.48 57.385 378.9 56.065 378.9 54.355C378.9 52.645 378.48 51.34 377.64 50.44C376.83 49.54 375.825 49.09 374.625 49.09C373.425 49.09 372.42 49.54 371.61 50.44C370.8 51.34 370.395 52.645 370.395 54.355C370.395 56.095 370.785 57.415 371.565 58.315C372.345 59.215 373.35 59.665 374.58 59.665ZM390.004 54.355C390.004 51.745 390.544 49.465 391.624 47.515C392.704 45.565 394.204 44.065 396.124 43.015C398.074 41.965 400.294 41.44 402.784 41.44C405.994 41.44 408.694 42.325 410.884 44.095C413.074 45.835 414.484 48.28 415.114 51.43H405.754C405.214 49.78 404.164 48.955 402.604 48.955C401.494 48.955 400.609 49.42 399.949 50.35C399.319 51.25 399.004 52.585 399.004 54.355C399.004 56.125 399.319 57.475 399.949 58.405C400.609 59.335 401.494 59.8 402.604 59.8C404.194 59.8 405.244 58.975 405.754 57.325H415.114C414.484 60.445 413.074 62.89 410.884 64.66C408.694 66.43 405.994 67.315 402.784 67.315C400.294 67.315 398.074 66.79 396.124 65.74C394.204 64.69 392.704 63.19 391.624 61.24C390.544 59.29 390.004 56.995 390.004 54.355ZM433.673 59.485V67H429.848C423.398 67 420.173 63.805 420.173 57.415V49.09H417.068V41.755H420.173V35.635H429.038V41.755H433.628V49.09H429.038V57.55C429.038 58.24 429.188 58.735 429.488 59.035C429.818 59.335 430.358 59.485 431.108 59.485H433.673ZM449.463 67.315C446.943 67.315 444.678 66.79 442.668 65.74C440.688 64.69 439.128 63.19 437.988 61.24C436.848 59.29 436.278 56.995 436.278 54.355C436.278 51.745 436.848 49.465 437.988 47.515C439.158 45.565 440.733 44.065 442.713 43.015C444.723 41.965 446.988 41.44 449.508 41.44C452.028 41.44 454.278 41.965 456.258 43.015C458.268 44.065 459.843 45.565 460.983 47.515C462.153 49.465 462.738 51.745 462.738 54.355C462.738 56.965 462.153 59.26 460.983 61.24C459.843 63.19 458.268 64.69 456.258 65.74C454.248 66.79 451.983 67.315 449.463 67.315ZM449.463 59.665C450.693 59.665 451.713 59.215 452.523 58.315C453.363 57.385 453.783 56.065 453.783 54.355C453.783 52.645 453.363 51.34 452.523 50.44C451.713 49.54 450.708 49.09 449.508 49.09C448.308 49.09 447.303 49.54 446.493 50.44C445.683 51.34 445.278 52.645 445.278 54.355C445.278 56.095 445.668 57.415 446.448 58.315C447.228 59.215 448.233 59.665 449.463 59.665ZM475.147 46.21C476.137 44.77 477.337 43.63 478.747 42.79C480.157 41.95 481.672 41.53 483.292 41.53V50.935H480.817C478.897 50.935 477.472 51.31 476.542 52.06C475.612 52.81 475.147 54.115 475.147 55.975V67H466.327V41.755H475.147V46.21Z" fill="#009AFF"/>
<defs>
<linearGradient id="paint0_linear_14_184" x1="0.000133333" y1="51.2173" x2="102.435" y2="51.2173" gradientUnits="userSpaceOnUse">
<stop stop-color="#009AFF"/>
<stop offset="1" stop-color="#009AFF"/>
</linearGradient>
</defs>
</svg>
