<svg width="1714" height="716" viewBox="0 0 1714 716" fill="none" xmlns="http://www.w3.org/2000/svg">
<path d="M0 543.174C62.21 464.163 157.84 310.864 251.61 237.684C599.171 -32.994 755.662 269.63 1317.89 33.291C1674.35 -116.547 1723.45 272.478 1711.68 542.026L0 543.174Z" fill="#0086DE"/>
<path opacity="0.05" d="M264.895 715.608C223.495 529.897 361.354 467.631 492.922 371.341C748.47 184.717 863.178 361.485 1276.56 198.541C1689.95 35.5969 1541.14 715.612 1541.14 715.612L264.895 715.608Z" fill="white"/>
<path d="M1677.73 715.607C1719.13 529.897 1581.27 467.63 1449.7 371.341C1194.15 184.718 1079.44 361.485 666.057 198.537C252.671 35.589 401.487 715.607 401.487 715.607H1677.73Z" fill="url(#paint0_linear_6_3)"/>
<defs>
<linearGradient id="paint0_linear_6_3" x1="904.571" y1="-12.6866" x2="906.142" y2="617.472" gradientUnits="userSpaceOnUse">
<stop stop-color="#006EB7"/>
<stop offset="1" stop-color="#0086DE"/>
</linearGradient>
</defs>
</svg>
