<svg id="Calque_1" data-name="Calque 1" xmlns="http://www.w3.org/2000/svg" xmlns:xlink="http://www.w3.org/1999/xlink" viewBox="0 0 1105.04 782.75"><defs><style>.cls-1{fill:#0086de;}.cls-1,.cls-2,.cls-20,.cls-24,.cls-3,.cls-6{isolation:isolate;}.cls-1,.cls-11,.cls-24,.cls-6{opacity:0.1;}.cls-2,.cls-27{fill:#ff6b7f;}.cls-2{opacity:0.2;}.cls-3{fill:#fda990;opacity:0.4;}.cls-4{fill:url(#Dégradé_sans_nom);}.cls-24,.cls-5{fill:#fff;}.cls-7{fill:#cf6f80;}.cls-8{fill:#80cae9;}.cls-9{fill:#3f3d56;}.cls-10{fill:#512e4e;}.cls-12{fill:#535461;}.cls-13{fill:#9d9cb5;}.cls-14{fill:none;stroke:#535461;stroke-miterlimit:10;stroke-width:2px;}.cls-15{fill:url(#Dégradé_sans_nom_2);}.cls-16{fill:#1d2366;}.cls-17{fill:#ffb0b1;}.cls-18{fill:#c979aa;}.cls-19{fill:#c7daf5;}.cls-20{opacity:0.03;}.cls-21{fill:#dce7ff;}.cls-22{fill:#591d4b;}.cls-23{fill:#be8b87;}.cls-25{fill:#efc8c4;}.cls-26{fill:#727a9c;}</style><linearGradient id="Dégradé_sans_nom" x1="403.59" y1="-51.58" x2="403.59" y2="563.74" gradientTransform="matrix(1, 0, 0, -1, -47.24, 723.27)" gradientUnits="userSpaceOnUse"><stop offset="0" stop-color="gray" stop-opacity="0.25"/><stop offset="0.54" stop-color="gray" stop-opacity="0.12"/><stop offset="1" stop-color="gray" stop-opacity="0.1"/></linearGradient><linearGradient id="Dégradé_sans_nom_2" x1="940.71" y1="-43.82" x2="940.71" y2="518.2" xlink:href="#Dégradé_sans_nom"/></defs><ellipse class="cls-1" cx="367.39" cy="766.66" rx="97.44" ry="15.65"/><ellipse class="cls-1" cx="897.06" cy="767.1" rx="121.59" ry="15.65"/><path class="cls-1" d="M13.85,338.21H115.34V476.54H21.28c-.25,1.42-.49,2.85-.75,4.28h94.81V592.38c-.17,0-.32-.11-.48-.17-2.68-1.06-5.34-2.18-8-3.38l-1.7-.77c-2.67-1.26-5.34-2.6-8-4-.93-.49-1.86-1-2.78-1.52A166.33,166.33,0,0,1,54.5,551.38c-.34-.33-.66-.68-1-1-1.62-1.76-3.21-3.54-4.75-5.36l-1.7-2c-1.82-2.23-3.58-4.52-5.29-6.84-.25-.34-.49-.68-.75-1a148.93,148.93,0,0,1-17.2-31.1c-.14-.33-.26-.69-.39-1q-2.07-5.31-3.65-10.7c-.46-1.51-.9-3-1.28-4.57-.14-.46-.26-.91-.37-1.36-5.68-22.17-6.35-45.2-6.35-68.07v-8c0-9.25.11-18.56.27-27.86,0-2.41.1-4.81.15-7.23q.21-9.21.6-18.42c.06-1.71.14-3.41.23-5.11a28.94,28.94,0,0,1,.15-2.94C13.41,345.26,13.61,341.73,13.85,338.21Z"/><path class="cls-1" d="M115.34,184.19H59.67a417.92,417.92,0,0,1,29.61-40.76c8.27-10.16,17-20.06,26.06-29.6Z"/><path class="cls-1" d="M115.34,188.47V333.93H14.17c0-.42.07-.85.1-1.27.09-1.15.18-2.3.28-3.44.11-1.34.23-2.69.36-4s.27-2.91.42-4.36.29-2.92.46-4.37.32-2.9.5-4.34.34-2.9.53-4.34c.15-1.2.31-2.39.47-3.59.23-1.69.47-3.39.73-5.07a4.68,4.68,0,0,1,.11-.75,344,344,0,0,1,7.45-36.52,268.09,268.09,0,0,1,12.55-37A276.53,276.53,0,0,1,57,188.52Z"/><path class="cls-2" d="M139.57,338.2V476.54H356.34V338.2Zm0,142.61v118.8c1.24.26,2.47.51,3.69.72,1.66.32,3.31.61,5,.86.32,0,.65.1,1,.13.66.11,1.34.2,2,.29,1.67.23,3.33.42,5,.57.79.08,1.59.15,2.39.21l1.93.15h0c1,.08,2.09.14,3.12.17.64,0,1.28.06,1.94.08h7.13c.86,0,1.72,0,2.57-.08h.06a13.48,13.48,0,0,0,1.79-.08h.5a10.34,10.34,0,0,0,1.48-.07h.35l3.35-.26c1.1-.1,2.21-.23,3.33-.35l2.28-.27a199.76,199.76,0,0,0,27.45-5.84c20.22-5.64,40-13.53,60.21-19.31,26.13-7.45,55-11.11,80.25-2V480.81ZM356.34,184.19V0a278.51,278.51,0,0,0-70.43,8.26C231,22.07,181.77,52,139.57,90.18v94h10.88v4.27H139.57V333.93H356.34V188.46H195.12v-4.27ZM634.77,122c-13.58-.48-27.08-4.78-39.29-11.42-23.35-12.7-42-32.31-62.84-48.86-43.3-34.47-97-55.27-152.09-60.43V184.19H690l.77-.81ZM663,117l29.89,32.8v-41.4c-10,1.24-18.78,4.19-29.85,8.56Zm29.89,512.13V480.81H629.16c-.17-.63-.34-1.27-.54-1.91.19.64.35,1.28.53,1.91H380.59V588.06c2.36,1.75,4.69,3.59,7,5.46h0c2.49,2,5,4.11,7.42,6.18l2.49,2.06c1.19,1,2.39,2,3.6,2.94q3.6,2.91,7.27,5.76c1.21,1,2.45,1.9,3.68,2.84a500.51,500.51,0,0,0,61.63,40.31q7.23,4,14.59,7.81c3.27,1.67,6.56,3.33,9.86,4.94q7.44,3.63,15,7h0a551.13,551.13,0,0,0,146,42.53q16.79,2.48,33.71,3.9V629.1h0ZM380.59,188.46V333.93h312.3V188.46Zm0,149.74V476.54h312.3V338.2Zm336.54-230v46.18l38.15-41.86q-19-3.06-38.15-4.37Zm0,230.05V476.54h303.75V338.2Zm302.64,301.84,1.07-159.28H717.13V721.38a547.38,547.38,0,0,0,58.7-.7h.34q14-.88,27.87-2.56h.21a513.54,513.54,0,0,0,143.2-38.21m132-318.93c-1.14-2.69-2.33-5.36-3.54-8-2.26-5-4.65-9.86-7.11-14.72h-23.7V476.54H1105c0-39.16-9.94-79.16-25.54-115.61ZM1045.1,480.86v137c16.88-16.18,31.14-34.69,41.41-55.85,12.35-25.48,18-53.07,18.46-81.17Zm0-182.92v36h21.48a389.4,389.4,0,0,0-21.45-36.05Zm-206-162.6c-1.58-.6-3.16-1.21-4.75-1.8A431.19,431.19,0,0,0,783,118.12l-58.38,64.07h0l-1.12,1.19.75.82H932.07a444.43,444.43,0,0,0-92.94-48.91Zm99.06,53.17H721.39l-4.26,3.9V333.93h303.79V265.38a432.76,432.76,0,0,0-82.73-76.92Z"/><path class="cls-3" d="M115.34,261.84v72.09H14.17c0-.42.07-.85.1-1.27.09-1.15.18-2.3.28-3.44.11-1.34.23-2.69.36-4s.27-2.91.42-4.36.29-2.92.46-4.37.32-2.9.5-4.34.34-2.9.53-4.34c.15-1.2.31-2.39.47-3.59.23-1.69.47-3.39.73-5.07a4.68,4.68,0,0,1,.11-.75,344,344,0,0,1,7.45-36.52Z"/><path class="cls-3" d="M13.85,338.21H115.34V476.54H21.28c-.25,1.42-.49,2.85-.75,4.28h94.81V592.38c-.17,0-.32-.11-.48-.17-2.68-1.06-5.34-2.18-8-3.38l-1.7-.77c-2.67-1.26-5.34-2.6-8-4-.93-.49-1.86-1-2.78-1.52A166.33,166.33,0,0,1,54.5,551.38c-.34-.33-.66-.68-1-1-1.62-1.76-3.21-3.54-4.75-5.36l-1.7-2c-1.82-2.23-3.58-4.52-5.29-6.84-.25-.34-.49-.68-.75-1a148.93,148.93,0,0,1-17.2-31.1c-.14-.33-.26-.69-.39-1q-2.07-5.31-3.65-10.7c-.46-1.51-.9-3-1.28-4.57-.14-.46-.26-.91-.37-1.36-5.68-22.17-6.35-45.2-6.35-68.07v-8c0-9.25.11-18.56.27-27.86,0-2.41.1-4.81.15-7.23q.21-9.21.6-18.42c.06-1.71.14-3.41.23-5.11a28.94,28.94,0,0,1,.15-2.94C13.41,345.26,13.61,341.73,13.85,338.21Z"/><polygon class="cls-3" points="215.88 209.29 215.88 333.93 139.56 333.93 139.56 209.29 150.44 209.29 150.44 167.09 195.1 167.09 195.1 209.29 215.88 209.29"/><rect class="cls-3" x="139.58" y="338.2" width="76.3" height="138.33"/><path class="cls-3" d="M139.57,480.82h76.31v115a201.22,201.22,0,0,1-27.45,5.83l-2.28.28c-1.12.13-2.23.24-3.33.35s-2.24.19-3.35.26h-.35c-.48,0-1,.06-1.47.07h-.51c-.6,0-1.2.06-1.8.08h0c-.85,0-1.7.06-2.57.07h-7.08l-1.93-.07c-1,0-2.08-.11-3.12-.18h0l-1.92-.14-2.39-.22c-1.68-.15-3.35-.34-5-.57l-2-.28-1-.14c-1.67-.26-3.32-.54-5-.86-1.23-.21-2.45-.47-3.69-.72Z"/><rect class="cls-1" x="629.97" y="194.57" width="62.92" height="139.35"/><polygon class="cls-3" points="692.89 330.98 692.89 469.32 380.58 469.32 380.58 409.65 546.93 409.65 546.93 444.85 629.97 444.85 629.97 330.98 692.89 330.98"/><path class="cls-3" d="M693.89,613.57h-1v90.75q-16.9-1.43-33.7-3.89a550.5,550.5,0,0,1-146.06-42.62Q493,648.75,473.69,638a501.38,501.38,0,0,1-61.64-40.31q-7.37-5.64-14.53-11.54c-3.31-2.73-6.6-5.53-9.93-8.25-2.31-1.87-4.64-3.71-7-5.47V465.25H629.14c-.17-.64-.34-1.28-.52-1.91.19.63.37,1.27.54,1.91h63.73V613.51C693.23,613.52,693.56,613.55,693.89,613.57Z"/><path class="cls-3" d="M857,184.19H816V171.45h18.38V133.5c1.59.58,3.18,1.17,4.76,1.79v36.16H857Z"/><path class="cls-3" d="M955.77,326.71H754.49l.07.05-.09-.05H717.13V187.36h10.58v103h48.35v-61H816V181.25h41V229.4h39.94v61h58.83Z"/><path class="cls-3" d="M717.13,338.2V476.54H955.77V338.2Zm303.42,301.18.33-109.5H955.77v-49H717.13v240.5a547.38,547.38,0,0,0,58.7-.7h.34q14-.88,27.87-2.56h.21a513.54,513.54,0,0,0,143.2-38.21"/><path class="cls-3" d="M1049.34,465.25H1105c-.49,28.09-6.13,55.68-18.47,81.16-10.27,21.17-24.54,39.68-41.4,55.85v-88h4.2Z"/><path class="cls-3" d="M1105,465h-55.7V349.34h30.14C1095.08,385.79,1105,425.79,1105,465Z"/><rect class="cls-1" x="659.19" y="233.31" width="33.71" height="43.69"/><rect class="cls-1" x="659.19" y="323.87" width="33.71" height="10.06"/><rect class="cls-1" x="659.19" y="338.2" width="33.71" height="29.35"/><rect class="cls-1" x="659.19" y="414.43" width="33.71" height="43.69"/><rect class="cls-1" x="659.19" y="504.99" width="33.71" height="43.69"/><path class="cls-1" d="M692.89,629.08a5.54,5.54,0,0,1,1,.06h-1v10.15h-33.7V595.55h33.7Z"/><path class="cls-1" d="M692.89,686.09v33.75Q676,718.4,659.19,716V686.09Z"/><rect class="cls-1" x="380.59" y="473.33" width="144.47" height="3.21"/><rect class="cls-1" x="380.59" y="480.81" width="144.47" height="12.3"/><rect class="cls-1" x="380.59" y="533.43" width="144.47" height="19.78"/><path class="cls-1" d="M525.05,593.53v19.78h-113q-7.37-5.62-14.54-11.54c-3.31-2.73-6.59-5.53-9.93-8.24Z"/><path class="cls-1" d="M525.05,653.62v19.76H513.12q-20.12-9.07-39.43-19.79Z"/><rect class="cls-1" x="775.84" y="351.61" width="28.44" height="28.44"/><rect class="cls-1" x="160.06" y="219.1" width="28.44" height="28.44"/><rect class="cls-1" x="160.06" y="285.16" width="28.44" height="28.44"/><rect class="cls-1" x="160.06" y="351.22" width="28.44" height="28.44"/><rect class="cls-1" x="160.06" y="417.27" width="28.44" height="28.44"/><rect class="cls-1" x="160.06" y="483.33" width="28.44" height="28.44"/><rect class="cls-1" x="160.06" y="549.39" width="28.44" height="28.44"/><rect class="cls-1" x="884.41" y="351.61" width="28.44" height="28.44"/><rect class="cls-1" x="775.84" y="421.76" width="28.44" height="28.44"/><rect class="cls-1" x="884.41" y="421.76" width="28.44" height="28.44"/><rect class="cls-1" x="775.84" y="491.9" width="28.44" height="28.44"/><rect class="cls-1" x="884.41" y="491.9" width="28.44" height="28.44"/><rect class="cls-1" x="775.84" y="562.05" width="28.44" height="28.44"/><rect class="cls-1" x="884.41" y="562.05" width="28.44" height="28.44"/><rect class="cls-1" x="775.84" y="632.2" width="28.44" height="28.44"/><rect class="cls-1" x="884.41" y="632.2" width="28.44" height="28.44"/><polygon class="cls-1" points="775.84 720.68 775.84 702.34 804.26 702.34 804.26 718.07 775.84 720.68"/><path class="cls-1" d="M18,298.38v16.27h97.33V298.38Zm9.7,15.25H19.77V299.38h8Zm9.69,0h-8V299.38h8Zm9.67,0h-8V299.38h8Zm9.69,0h-8V299.38h8Zm9.68,0h-8V299.38h8Zm9.69,0h-8V299.38h8Zm9.69,0h-8V299.38h8Zm9.68,0h-8V299.38h8Zm9.68,0h-8V299.38h8Zm9.68,0h-8V299.38h8Z"/><path class="cls-1" d="M18,345.72V362h97.33V345.72ZM27.71,361H19.77V346.75h8Zm9.69,0h-8V346.75h8Zm9.67,0h-8V346.75h8Zm9.69,0h-8V346.75h8Zm9.68,0h-8V346.75h8Zm9.69,0h-8V346.75h8Zm9.69,0h-8V346.75h8Zm9.68,0h-8V346.75h8Zm9.68,0h-8V346.75h8Zm9.68,0h-8V346.75h8Z"/><path class="cls-1" d="M18,393.08v16.3h97.33v-16.3Zm9.7,15.24H19.77V394.1h8Zm9.69,0h-8V394.1h8Zm9.67,0h-8V394.1h8Zm9.69,0h-8V394.1h8Zm9.68,0h-8V394.1h8Zm9.69,0h-8V394.1h8Zm9.69,0h-8V394.1h8Zm9.68,0h-8V394.1h8Zm9.68,0h-8V394.1h8Zm9.68,0h-8V394.1h8Z"/><path class="cls-1" d="M18,440.44v16.25h97.33V440.44Zm9.7,15.24H19.77V441.45h8Zm9.69,0h-8V441.45h8Zm9.67,0h-8V441.45h8Zm9.69,0h-8V441.45h8Zm9.68,0h-8V441.45h8Zm9.69,0h-8V441.45h8Zm9.69,0h-8V441.45h8Zm9.68,0h-8V441.45h8Zm9.68,0h-8V441.45h8Zm9.68,0h-8V441.45h8Z"/><path class="cls-1" d="M18.43,487.79c.39,1.53.83,3.06,1.29,4.57v-3.55h8V503H23.44c.13.33.26.69.39,1h91.51V487.79Zm19,15.24h-8V488.81h8Zm9.67,0h-8V488.81h8Zm9.69,0h-8V488.81h8Zm9.68,0h-8V488.81h8Zm9.69,0h-8V488.81h8Zm9.69,0h-8V488.81h8Zm9.68,0h-8V488.81h8Zm9.68,0h-8V488.81h8Zm9.68,0h-8V488.81h8Z"/><path class="cls-1" d="M41,535.15c.25.32.49.68.75,1h5.29V543c.57.68,1.13,1.36,1.71,2v-8.87h8v14.27H53.54c.32.33.63.68,1,1h60.83V535.15Zm25.41,15.23h-8V536.17h8Zm9.69,0h-8V536.17h8Zm9.69,0h-8V536.17h8Zm9.68,0h-8V536.17h8Zm9.68,0h-8V536.17h8Zm9.68,0h-8V536.17h8Z"/><path class="cls-1" d="M94.42,582.5c.91.52,1.84,1,2.78,1.52v-.5h8V588l1.7.79v-5.29h8v8.65a3.41,3.41,0,0,0,.48.18V582.5Z"/><path class="cls-1" d="M754.49,333.93Zm-61.6,295.14ZM628.62,478.9c.19.64.35,1.28.53,1.91h0C629,480.18,628.82,479.54,628.62,478.9Zm125.87-145Zm-604-149.74v4.27h44.67v-4.27Zm542.4,444.91ZM628.62,478.9c.19.64.35,1.28.53,1.91h0C629,480.18,628.82,479.54,628.62,478.9Zm125.87-145ZM692.89,629ZM628.62,478.9c.19.64.35,1.28.53,1.91h0C629,480.18,628.82,479.54,628.62,478.9Z"/><path class="cls-4" d="M461.61,379.68s-3.94-.55-3.94-6.29-2.82-16.46-2.82-16.46h0c0-.05-2.44-18.67-5.81-21.63s-7.7-20.34-7.7-20.34-.74-9.43-2.25-11.46-3.55-7-6.56-14.09-15.56-12-15.56-12S394.28,264.25,387.85,260h0a10,10,0,0,1-1.63-1.23c-1.12-1.47-6-1.5-6-1.5A98.32,98.32,0,0,1,379.06,247a7.81,7.81,0,0,0-.05-1.08,34.61,34.61,0,0,0,15.21-18.82c.12-.38.22-.78.33-1.16a3.32,3.32,0,0,0,1.95-1.76c.58-1.29.59-2.8,1.31-4,.84-1.42,2.44-2.18,3.7-3.25,3.18-2.7,4-7.25,3.85-11.39-.1-3.35-.64-6.73-.43-10.06l.06-.84c.06-.5.13-1,.22-1.48.49-2.48,1.56-4.82,2.16-7.28s.66-5.23-.74-7.35c-2.05-3.11-6.32-3.73-10.07-4.05-4.25-.36-8.05.11-10.77-3.42a38.66,38.66,0,0,0-4.28-5.17c-.56-.52-6-3.84-6-4.06a24.31,24.31,0,0,0-16.95-1.3c-2.82.82-5.48,2.16-8.34,2.83-6.17,1.46-13.27-.12-18.51,3.41-2.92,2-4.67,5.18-6.31,8.28q-2,3.83-4.06,7.65c-2.21,4.19-4.46,8.45-5.39,13.09a19.66,19.66,0,0,0-.36,3.06h0v1.63a5.38,5.38,0,0,0,.06,1c.06.31.05.41.08.62s.08.68.14,1,.18.88.3,1.32c.05.19.12.37.18.55.1.34.22.67.35,1,.07.17.14.35.22.52a9.36,9.36,0,0,0,.51,1c.08.14.14.27.22.4a11.8,11.8,0,0,0,.92,1.34c2.14,2.67,5.29,4.37,7.62,6.87v1.12a34.22,34.22,0,0,0,15.58,27.95c0,.38.05.77.07,1.15a58.92,58.92,0,0,1-.11,8.91,4.17,4.17,0,0,0-3.32-1.48,4.59,4.59,0,0,0-1.28.11l-.09-.07h0v.09c-2.2.54-4.91,2.83-7.5,9.34,0,0-7.88,8.88-13.88,8.51s-21.19,9.24-21.19,9.24-14.82,9.62-18,19.42a138.37,138.37,0,0,1-6.38,16.28l-18.32,37.75h0l-3.38,29.95s1.87,13.32,1.5,15.35S257.58,420,257.58,420s26.63,46.79,37.51,49.19l.78-.55a6.64,6.64,0,0,0,1.47.55l2.24-1.58a25.2,25.2,0,0,1-.17,5.28c-1.5,4.62.56,34.77,3.18,40.68s1.69,83.4,1.69,83.4l-.37,6.84a2.9,2.9,0,0,0,.09.6l-.09,1.62.27.14a19.51,19.51,0,0,1-.27,6.51c-.94,3-1.32,11.48-1.32,11.48s-7.49,47.88-3.94,57.5,6.57,20.16,6.57,20.16,3.75,12,.18,14-13.72,5.49-11.63,10.49c1.9,4.62,9.11,17,10.18,18.81l-.09.95-1.47,15.93a19.61,19.61,0,0,0,1.69,6.08c1.61,3.47,4.74,7.07,10.69,6.68,1-.07,2.16-.19,3.28-.34,10.89-1.46,24.3-6.32,24.3-6.32a9.93,9.93,0,0,1-1.9-1.57h0a5.45,5.45,0,0,1-1.67-4c.16-2.9-5.27-16.72-6.62-20.12-.21-.49-.32-.77-.32-.77s12.38-12.94,10.32-24.41c0,0-13.7-8-9.19-12.39s12.57-17,12.57-17,.37-47.15,0-54.19a57.81,57.81,0,0,1,.69-14.63c.15-.73.33-1.44.52-2.14a130.44,130.44,0,0,0,18.84,1.43c2.3,0,4.64,0,7-.14q0,1,.09,2.16c.52,11.68,1.49,32.16,2.28,39.77,1.12,10.91,7.31,40.31,7.31,40.31s-11.81,7.58,2.06,26.26c0,0,0,6.77-.92,7.75h0a81.63,81.63,0,0,0-2.37,9.76c-.58,3.52-.82,7.08.12,8.93,2.25,4.42,15.75,4.06,15.75,4.06h0l.33-.06a19.33,19.33,0,0,1,14.29,4.31c5.13,4.12,24.6,2.31,35.14,1,4.13-.52,6.89-1,6.89-1a4.13,4.13,0,0,0,.14-1.44h0c-.11-2.59-2.14-8.27-15.9-13.34,0,0-12.94-8.7-12.76-16.28h-1.77a14.1,14.1,0,0,1,1.79,0s-5.07-18.5-3-20-4.13-22-4.13-22-3.55-34.4-3.74-36.81a20.65,20.65,0,0,1,.93-6.1l-.93-18.86s-.18-6.27,0-8.31a44.56,44.56,0,0,0-.43-5.29c-.09-.7-.18-1.43-.28-2.15,4.85-1.23,8-2.37,8-2.37l-.56-65.65c4.12-8,4.88-25.55,4.86-38,0-8-.36-13.92-.36-13.92l5.63-9.19s1.3-11-.76-13.41c-.91-1.09-.5-2.22.25-3.15a9.53,9.53,0,0,1,1.23-.84s-.06-.09-.13-.22a9.14,9.14,0,0,1,1.25-.89s-2-3.1-.21-4.41c1.68,1.14,3.18,2,4.32,2.7-.08.73-.16,1.15-.16,1.15l.48-1,1.77,1s8.82-17.57,8.63-20.16,6-13.5,6-13.5.75-5.73,4.13-8.13,2.62-19.79,2.62-19.79.94-9.06,3.19-12.76S461.61,379.68,461.61,379.68ZM292.85,372l.17,4.19-1.72-2.77Z"/><path class="cls-5" d="M439.57,455.12l-2.16,9.2s-17.3-8.83-20.42-20.05,5.22-15.48,5.22-15.48l16.12,6.83Z"/><path class="cls-6" d="M439.57,455.12l-2.16,9.2s-17.3-8.83-20.42-20.05,5.22-15.48,5.22-15.48l16.12,6.83Z"/><path class="cls-5" d="M342.48,768.23s-16,5.88-27,6.62c-5.84.39-8.91-3.19-10.49-6.64a19.92,19.92,0,0,1-1.65-6.05l1.43-15.85.76-8.44,23.37-6.07,3.31,10.12.31.77c1.33,3.38,6.66,17.13,6.5,20a5.41,5.41,0,0,0,1.64,3.95A9.24,9.24,0,0,0,342.48,768.23Z"/><path class="cls-5" d="M451.77,760.17a4.08,4.08,0,0,1-.14,1.43s-34.22,5.71-41.22,0a18.51,18.51,0,0,0-14.4-4.22s-13.24.36-15.45-4c-.92-1.83-.68-5.38-.11-8.88a82.6,82.6,0,0,1,2.32-9.71l.53-.42,3.15-2.53,36.88-1.09h.28c-.18,7.54,12.52,16.19,12.52,16.19C449.62,751.94,451.61,757.59,451.77,760.17Z"/><path class="cls-6" d="M451.77,760.17a4.33,4.33,0,0,1-.15,1.43s-34.21,5.71-41.21,0A18.52,18.52,0,0,0,396,757.38s-13.25.36-15.45-4c-.92-1.84-.69-5.38-.12-8.88,5.1.51,13.15,1.78,16.31,4.81,4.78,4.61,12.88,9.21,17.85,9.57C418.5,759.13,441.77,759.87,451.77,760.17Z"/><path class="cls-6" d="M342.48,768.23s-16,5.88-27,6.62c-5.84.39-8.91-3.19-10.48-6.65,4.07,1.37,9.72,2.81,12.69,1.49,3.52-1.56,16-2.57,23-3A9.77,9.77,0,0,0,342.48,768.23Z"/><path class="cls-7" d="M366.22,294.38c-13.2-5.13-30.18-22.08-25.94-30a17.81,17.81,0,0,0,1.65-6.36,58.81,58.81,0,0,0,.12-9,124.19,124.19,0,0,0-1.77-14.64s41.21.93,38.81,7c-.7,1.78-.81,4.87-.62,8.33s.69,7.37,1.21,10.68c.72,4.54,1.44,8,1.44,8s-2.52,3.53-4,3.72S385.16,301.69,366.22,294.38Z"/><path class="cls-6" d="M332.49,742.69l-.31.34C319.86,728.13,305,746.7,305,746.7l-.22-.39.76-8.44,23.37-6.07,3.31,10.12Z"/><path class="cls-6" d="M423.62,731.8s-9-.19-13.8,4.05-28,.92-27,0a3.45,3.45,0,0,0,.52-1.52l3.15-2.53,36.88-1.09C423.51,731.38,423.62,731.8,423.62,731.8Z"/><path class="cls-8" d="M347.82,614.79a26.78,26.78,0,0,0-1.52,5.13,58.19,58.19,0,0,0-.69,14.56c.37,7,0,53.91,0,53.91s-7.91,12.51-12.32,16.92,9,12.33,9,12.33c2,11.4-10.12,24.28-10.12,24.28C319.85,727,305,745.6,305,745.6s-8.1-14-10.12-19,7.91-8.46,11.4-10.49-.17-14-.17-14-2.95-10.49-6.45-20.06,3.86-57.21,3.86-57.21.38-8.46,1.29-11.41A19.33,19.33,0,0,0,305,607c-.06-.73-.13-1.34-.18-1.75s-.09-.6-.09-.6l.14-.24,5-9.32S350.22,608.92,347.82,614.79Z"/><path class="cls-8" d="M423.62,730.7s-9-.19-13.8,4-28,.92-27,0,.92-7.73.92-7.73c-13.61-18.58-2-26.12-2-26.12s-6.08-29.25-7.18-40.1c-.77-7.58-1.72-28-2.23-39.58-.22-5-.35-8.44-.35-8.44l11.12-2.24,1.43-.29,26.82-5.38s.74,5,1.24,9.09a46.22,46.22,0,0,1,.42,5.27c-.18,2,0,8.26,0,8.26l.91,18.77a20.81,20.81,0,0,0-.91,6.07c.18,2.39,3.67,36.61,3.67,36.61s6.07,20.42,4,21.89S423.62,730.7,423.62,730.7Z"/><path class="cls-6" d="M379.09,241.38c-.7,1.78-.81,4.87-.62,8.33a34.25,34.25,0,0,1-36.42-.68,124.1,124.1,0,0,0-1.77-14.65S381.49,235.29,379.09,241.38Z"/><path class="cls-7" d="M395,219.28a34.21,34.21,0,0,1-68.42.82v-.82A34.22,34.22,0,1,1,395,218.11v1.17Z"/><path class="cls-6" d="M366.22,294.38c-13.2-5.13-30.18-22.08-25.94-30a17.81,17.81,0,0,0,1.65-6.36L360,272.87,371.18,282l8.5-21.64c.72,4.54,1.44,8,1.44,8s-2.52,3.53-4,3.72S385.16,301.69,366.22,294.38Z"/><polygon class="cls-8" points="412.94 360.01 397.86 613.51 378.18 614.8 327.21 467.81 335.57 293.3 337.33 256.43 360 275.04 371.19 284.21 379.94 261.94 396.2 276.12 412.94 360.01"/><path class="cls-6" d="M347.82,614.79a26.78,26.78,0,0,0-1.52,5.13A145.08,145.08,0,0,1,305,607l-.27-.14.09-1.61.05-.84,5-9.32S350.22,608.92,347.82,614.79Z"/><path class="cls-6" d="M383.33,620a103.12,103.12,0,0,1-11.06,1.26c-.22-5-.35-8.44-.35-8.44L383,610.54Z"/><path class="cls-6" d="M412.53,614c-7.11,1.85-18.09,3.93-27.92,2.63l-.14-6.34,26.82-5.38S412,609.82,412.53,614Z"/><path class="cls-6" d="M384.43,617.75c-41,7-78.55-13.07-78.55-13.07l.36-6.8s.93-77.09-1.65-83S300,479,301.46,474.4s-5.33-73.58-5.33-73.58l-1.1-28-40.26-16.31,18-37.52a136.5,136.5,0,0,0,6.26-16.2c3.13-9.74,17.66-19.31,17.66-19.31s14.9-9.56,20.79-9.2,13.61-8.46,13.61-8.46c5.7-14.53,10.86-7.95,10.86-7.95a13,13,0,0,1-.28,2.15c-2,16,32.34,66.35,32.83,67.24h0l3.27,79.66,3.31,100.81Z"/><path class="cls-5" d="M383.33,617.75c-41,7-78.56-13.07-78.56-13.07l.37-6.8s.93-77.09-1.66-83-4.59-35.88-3.12-40.48S295,400.82,295,400.82l-1.11-28-40.28-16.37,18-37.52a140.74,140.74,0,0,0,6.26-16.2c3.12-9.74,17.66-19.31,17.66-19.31s14.9-9.56,20.78-9.2S330,265.76,330,265.76c5.71-14.53,12-7.95,12-7.95,0,.69-.6,1-.28,2.15,4.4,15.47,31.24,66.35,31.73,67.24h0l3.31,79.66L380,507.67Z"/><path class="cls-6" d="M372.28,329.47c-4.41-1.84-27.77-28.51-27.77-28.51v-6.07c-.85-2-5.9-.78-10,.62l1.76-36.87,2,1.66C342.65,275.76,371.77,328.58,372.28,329.47Z"/><path class="cls-5" d="M373.39,327.26c-4.42-1.84-27.78-28.51-27.78-28.51v-6.07c-.85-2-5.9-.78-10,.62l1.77-36.87,2,1.66C343.77,273.55,372.9,326.38,373.39,327.26Z"/><path class="cls-6" d="M305.88,460.27c.55,0,28.51-2.94,28.51-2.94s16.93,33.29,15.82,41.39-3.12,15.27-9.93,14-36.65,1-36.65,1Z"/><path class="cls-5" d="M304.77,458.06c.55,0,28.51-2.94,28.51-2.94s16.92,33.3,15.82,41.39-3.13,15.27-9.93,14-36.65,1-36.65,1Z"/><path class="cls-7" d="M325.84,442.43s25.66,13.79,26.21,18-13.06-1.84-16-2.57a35.72,35.72,0,0,0-5.89-.92l-19.61.53Z"/><circle class="cls-6" cx="365.12" cy="328.49" r="2.7"/><circle class="cls-9" cx="365.12" cy="327.39" r="2.7"/><circle class="cls-6" cx="370.09" cy="445.37" r="2.7"/><circle class="cls-9" cx="370.09" cy="444.26" r="2.7"/><circle class="cls-6" cx="367.81" cy="386.93" r="2.7"/><circle class="cls-9" cx="367.81" cy="385.83" r="2.7"/><path class="cls-5" d="M430.05,456.38s1.84,2.76,0,4.05.18,4.41.18,4.41-4.59,2.69-2.57,5.11.74,13.35.74,13.35l-5.52,9.14s.33,5.89.35,13.85c0,12.42-.73,29.88-4.77,37.84l.56,65.31s-19.33,7.06-35.51,4.91l-2.4-104.8s3.5-59.43,4.79-70.83a119.7,119.7,0,0,0,.92-17.85s-.55-17.84-2.4-26.12c0,0-2-35.87-2.2-45.8-.09-4.75.16-18.61.44-31.79.31-14.41.66-28,.66-28l-3.65-28.88s3.65-.37,4.75,1.1a10.15,10.15,0,0,0,1.6,1.23h0c6.3,4.26,28.56,17.36,28.56,17.36s12.32,4.9,15.27,11.92,5,12,6.43,14,2.21,11.4,2.21,11.4,4.24,17.3,7.55,20.23,5.73,21.57,5.73,21.57l-29.25,23s-2.57,38.26-3.12,39.74S430.05,456.38,430.05,456.38Z"/><path class="cls-5" d="M431.16,456.38s1.83,2.76,0,4.05.17,4.41.17,4.41-4.56,2.72-2.56,5.14.74,13.35.74,13.35L424,492.47s.33,5.89.36,13.85c0,12.42-.73,29.88-4.77,37.84l.55,65.31s-19.36,7.06-35.52,4.91l-2.39-104.8s3.5-59.43,4.79-70.83a118.37,118.37,0,0,0,.91-17.85s-.55-17.84-2.39-26.12c0,0-2-35.87-2.21-45.8-.09-4.75.17-18.61.44-31.79.31-14.41.66-28,.66-28l-4.82-29.27s4.82,0,5.93,1.49a9.71,9.71,0,0,0,1.6,1.23h0C393.43,266.9,415.7,280,415.7,280S428,284.9,431,291.92s5,12,6.44,14,2.2,11.4,2.2,11.4,4.24,17.3,7.55,20.23,5.7,21.53,5.7,21.53l-29.25,23s-2.57,38.26-3.13,39.74S431.16,456.38,431.16,456.38Z"/><path class="cls-6" d="M396.13,297.68l2.64,7.7-13.9,14c.31-14.4.66-28,.66-28l-4.82-29.27s4.82,0,5.93,1.49a9.14,9.14,0,0,0,1.6,1.22h0l11.82,34.1Z"/><path class="cls-5" d="M395,295.47l2.65,7.7-13.9,14c.31-14.41.66-28,.66-28L379.6,259.9s4.83,0,5.93,1.49a10.15,10.15,0,0,0,1.6,1.23h0L399,296.71Z"/><path class="cls-6" d="M395,219.28a34.17,34.17,0,0,1-1.68,10.61,1.42,1.42,0,0,1-1.08-.27c-.26-9-4.69-17.45-10.14-24.64a25.87,25.87,0,0,0-5.5-5.7,10.74,10.74,0,0,0-7.46-2.11c-3,.41-5.65,2.45-8.68,2.71-4,.33-7.58-2.44-11.55-2.58a11.31,11.31,0,0,0-8.49,3.94,23.08,23.08,0,0,0-4.55,8.44,49,49,0,0,0-2.54,14.56c-.05,2.8-.32,6.31-2.92,7.33a15,15,0,0,0-3.77-11.41l-.06-.06v-.82A34.22,34.22,0,1,1,395,218.11v1.17Z"/><path class="cls-10" d="M375,165a23.51,23.51,0,0,0-16.62-1.3c-2.77.82-5.38,2.15-8.19,2.82-6,1.45-13-.12-18.15,3.39-2.86,2-4.58,5.16-6.18,8.23l-4,7.62c-2.18,4.17-4.38,8.41-5.29,13s-.36,9.73,2.55,13.42c2.12,2.69,5.25,4.38,7.55,6.91a15,15,0,0,1,3.76,11.4c2.61-1,2.86-4.52,2.92-7.32a49,49,0,0,1,2.54-14.56,23.08,23.08,0,0,1,4.55-8.44,11.35,11.35,0,0,1,8.49-3.94c4,.14,7.59,2.9,11.55,2.57,3-.25,5.66-2.3,8.68-2.7a10.69,10.69,0,0,1,7.46,2.11,25.61,25.61,0,0,1,5.49,5.7c5.46,7.19,9.89,15.62,10.15,24.64,1.13.83,2.76-.25,3.32-1.53s.58-2.78,1.29-4c.82-1.41,2.39-2.16,3.62-3.22,3.12-2.69,3.9-7.22,3.78-11.33s-.92-8.28-.14-12.32c.47-2.48,1.53-4.8,2.11-7.25s.65-5.2-.72-7.31c-2-3.1-6.21-3.71-9.88-4-4.17-.36-7.9.1-10.56-3.41a37.82,37.82,0,0,0-4.2-5.14C380.33,168.47,375,165.17,375,165Z"/><path class="cls-6" d="M266.29,375.83l-10.45-19.32-3.31,29.81s1.84,13.24,1.47,15.27,7.54,20.23,7.54,20.23,26.13,46.54,36.8,48.94L334.39,445l-9.56-12.14s-3.31-1.29-4.14,0c0,0-17.75-30.54-19.59-32.75s-1.48-6.62-1.48-6.62-2.76-2.94-1.84-5.7-5.33-12.33-5.33-12.33l5.7-5.33Z"/><path class="cls-5" d="M256.39,354.31l-2.76,2.2-3.31,29.81s1.84,13.24,1.47,15.27,7.55,20.23,7.55,20.23,26.12,46.54,36.79,48.94L332.19,445l-9.57-12.14s-3.31-1.29-4.14,0c0,0-17.75-30.54-19.59-32.75s-1.47-6.62-1.47-6.62-2.76-2.94-1.84-5.7-5.34-12.33-5.34-12.33l5.7-5.33Z"/><path class="cls-6" d="M427.66,471.09c2,2.43.74,13.34.74,13.34l-5.52,9.14s.33,5.9.35,13.85l-9.28,2.9a5.49,5.49,0,0,1-7.15-5.43l1.6-51.61,21.65,8.28c-1.84,1.28.18,4.42.18,4.42S425.64,468.66,427.66,471.09Z"/><path class="cls-5" d="M428.77,470c2,2.43.74,13.35.74,13.35L424,492.47s.33,5.89.36,13.85l-9.45,2.95a5.4,5.4,0,0,1-6.76-3.56,5.27,5.27,0,0,1-.24-1.76l1.61-51.77,21.66,8.28c-1.85,1.28.17,4.41.17,4.41S426.77,467.56,428.77,470Z"/><path class="cls-7" d="M435.94,445.38s-1.47,9.39-5.15,9.94-5.33,15.19-9,14.67-1.24-13.61-1.11-16.15-4-13.06-.91-15.45,12.87,0,12.87,0Z"/><path class="cls-6" d="M443.77,373.07l6.94-14s2.76,10.67,2.76,16.37,3.86,6.26,3.86,6.26,4.23,5,2,8.64S456.2,403,456.2,403s.73,17.29-2.58,19.68-4,8.1-4,8.1-6.08,10.85-5.89,13.43-8.46,20.05-8.46,20.05,4.23-21.71-20.42-31.09c0,0-.19-7.37,1.65-9.39s4.71-2.94,2.91-13.15-.52-22.41-.52-24.86,5.52-17.73,5.52-17.73Z"/><path class="cls-5" d="M446.77,357.07l6.06,2s2.77,10.67,2.77,16.37,3.86,6.26,3.86,6.26,4.23,5,2,8.64-3.12,12.7-3.12,12.7.73,17.29-2.58,19.68-4.05,8.1-4.05,8.1-6.07,10.85-5.88,13.43-8.47,20.05-8.47,20.05,4.24-21.71-20.42-31.09c0,0-.18-7.37,1.66-9.39s4.71-2.94,2.91-13.15-.52-22.41-.52-24.86,5.52-17.73,5.52-17.73Z"/><path class="cls-6" d="M312.92,719.94s9.66-6.07,16-1.66S312.92,719.94,312.92,719.94Z"/><path class="cls-6" d="M388,701.17s8.55-1.1,15.73,6.63S388,701.17,388,701.17Z"/><g class="cls-11"><path d="M400.49,217.56c-1.23,1.06-2.81,1.82-3.63,3.23-.7,1.21-.72,2.7-1.28,4s-2.19,2.36-3.32,1.54c-.26-9-4.7-17.45-10.15-24.65a25.61,25.61,0,0,0-5.49-5.7,10.73,10.73,0,0,0-7.47-2.11c-3,.41-5.64,2.45-8.67,2.7-4,.34-7.59-2.43-11.56-2.57a11.29,11.29,0,0,0-8.48,3.95,23,23,0,0,0-4.55,8.43,49,49,0,0,0-2.54,14.56c-.06,2.79-.32,6.27-2.9,7.31a13.71,13.71,0,0,1,0,2.22c2.6-1,2.86-4.52,2.92-7.32a49,49,0,0,1,2.54-14.56,23.08,23.08,0,0,1,4.55-8.44,11.31,11.31,0,0,1,8.48-3.94c4,.14,7.6,2.9,11.56,2.57,3-.25,5.66-2.3,8.67-2.7a10.73,10.73,0,0,1,7.47,2.11,25.61,25.61,0,0,1,5.49,5.7c5.45,7.19,9.89,15.62,10.15,24.64,1.13.83,2.76-.25,3.32-1.53s.58-2.78,1.28-4c.82-1.41,2.4-2.16,3.63-3.22,3.12-2.69,3.9-7.22,3.78-11.33v-.38C404.1,211.63,403.15,215.26,400.49,217.56Z"/><path d="M326.67,216.85c-2.3-2.53-5.44-4.22-7.55-6.9a14.58,14.58,0,0,1-2.91-8.19,15.33,15.33,0,0,0,2.91,10.39c2.11,2.69,5.25,4.38,7.55,6.91a15.06,15.06,0,0,1,3.77,8.92A15.07,15.07,0,0,0,326.67,216.85Z"/><path d="M406.24,186.66c-.59,2.45-1.64,4.78-2.12,7.25a22.61,22.61,0,0,0-.31,5,17.88,17.88,0,0,1,.31-2.84c.48-2.48,1.53-4.8,2.12-7.25a12.54,12.54,0,0,0,.33-4.14A16.69,16.69,0,0,1,406.24,186.66Z"/></g><ellipse class="cls-1" cx="132.74" cy="744.95" rx="97.44" ry="15.65"/><rect class="cls-12" x="129.61" y="445.15" width="6.27" height="141.17"/><path class="cls-9" d="M175.28,585.89l-.39,6.36-.56,9L174.1,605l-.55,9-.24,3.74-.56,9L166.43,728.8A17.31,17.31,0,0,1,149.17,745H116.31A17.29,17.29,0,0,1,99.06,728.8L92.77,626.66l-.56-9L92,613.92l-.56-9-.23-3.74-.56-9-.4-6.36a9,9,0,0,1,8.47-9.5h67.74a8.94,8.94,0,0,1,8.86,9C175.3,585.51,175.29,585.7,175.28,585.89Z"/><polygon class="cls-13" points="174.88 592.25 174.32 601.22 91.14 601.22 90.58 592.25 174.88 592.25"/><polygon class="cls-13" points="174.09 604.96 173.54 613.94 91.94 613.94 91.38 604.96 174.09 604.96"/><polygon class="cls-13" points="173.31 617.69 172.75 626.66 92.72 626.66 92.17 617.69 173.31 617.69"/><path class="cls-8" d="M81,498.06c36.51,26.42,51.75,67.74,51.75,67.74s-44-1.51-80.52-27.93S.52,470.14.52,470.14,44.5,471.64,81,498.06Z"/><path class="cls-14" d="M.49,470.14s45.68,25.35,60.33,46.34,72,49.32,72,49.32"/><path class="cls-8" d="M104.59,444.84c19.87,14.37,28.18,36.86,28.18,36.86s-24-.82-43.83-15.19-28.17-36.87-28.17-36.87S84.71,430.46,104.59,444.84Z"/><path class="cls-14" d="M60.77,429.64s24.86,13.8,32.83,25.22,39.17,26.84,39.17,26.84"/><path class="cls-8" d="M161.62,480.56C138.79,505.65,134,538.44,134,538.44s32.19-7.9,55-33,27.66-57.88,27.66-57.88S184.45,455.47,161.62,480.56Z"/><path class="cls-14" d="M216.64,447.57S186.9,473.29,179.34,491,134,538.44,134,538.44"/><path class="cls-15" d="M999.68,471.73s-16.51-82.14-10.19-92.36c0,0,.23-9.5-.15-21.61v-1.39a30.6,30.6,0,0,0,3.47,2,28.11,28.11,0,0,0,18.9,2.44l-5-5.57c-1.2-1.33-2.45-2.77-2.71-4.53s.46-3.33,1.08-4.9c4.75-12,5-27.09-4.15-36.25-7.73-7.7-9.61-17.64-18-24.67-6.13-5.15-9.5-12.7-12.68-20-2.69-6.17-5.4-12.39-6.94-18.93-1.2-5.11-1.68-10.4-3.33-15.39s-4.74-9.84-9.57-12.07c-1.72-.79-3.63-1.24-5.2-2.29-2.06-1.39-3.3-3.65-4.79-5.63-7.57-10-32.92-4.11-44.92-.05a25,25,0,0,0-8.88,4.92l.11-.18c.09-.15.2-.3.3-.45a15.41,15.41,0,0,0-3.36,3.75c-1.75,2.77-2.48,6-3.94,9C878,231.12,868.18,241,872.39,245a3.71,3.71,0,0,0,1,.64,8.73,8.73,0,0,0,5,.5l-.18.43A29.06,29.06,0,0,0,876,257.68c0,16.43,13.55,29.75,30.28,29.75a30.72,30.72,0,0,0,9.27-1.43c.07.38.13.76.2,1.14a3.5,3.5,0,0,0,.07.45h0l-.53.74-.09-.13-15.7,21.94c-2.4,1.69-16.22,11.69-17,19.19-.82,8.21-1.64,17.82-1.64,17.82l-.11,2.06a6.2,6.2,0,0,1-5,1.35c-4.9-.8-4.9,18-4.9,18s-3.26,3-5.5.4-8.16,6.21-8.16,6.21l-37.1,1.6h0l-.85.05-2-6.19A2.61,2.61,0,0,0,814,369a2.25,2.25,0,0,0-.45.19l-.14.08-.26.18-.13.12a1,1,0,0,0-.2.21l-.12.14-.06.06h0a2.48,2.48,0,0,0-.36,2.24l1.72,5.31c-7.16,1.44-14.48,5.5-8.51,16.68l-30.26-5.59L785,396.8l50.54,10.43c-.67,1.2-.23,2.94,1.86,5.39,9,10.57,25.4,13.44,32,14.18a56.59,56.59,0,0,0,6.49,11l-.57,10.53s-16.71,80.26-19.77,84.33a49.77,49.77,0,0,0,4.23-5.57c-4.85,16.49-11.63,39.06-13.41,42.44-2.86,5.4-5.51,27.25-2.25,28.65,1,.43,3.86.22,7.94-.09v1.81l-.18,68.59s.82,42.07-1.43,46.08S847.63,727,847.63,727s-9,16.59-16.13,23.26l-.16.14-.22-1.56s-8.57,10.82-27.53,10.21c0,0-11.41,7.42,5.51,7.82s38.53-.6,38.53-.6,15.09-23,27.73-20v17.43h3.87V746a15.93,15.93,0,0,0,6.89-10.43,12.69,12.69,0,0,0-4.52-11.73,7.47,7.47,0,0,1-2.47-5.48l-.14.12a10.57,10.57,0,0,0-.13-1.08c-1.11-9-2.5-27.57,2.41-41.31,6.73-18.84,8.77-45.08,3.87-60.7a137.82,137.82,0,0,1-3.89-15.21c-.12-.65-.23-1.27-.33-1.85a78.64,78.64,0,0,1,9.93,2c11.35,3.13,36.18,3.71,57.38,3.54,0,.58.11,1.19.18,1.8a64.31,64.31,0,0,0,2.36,12.52c2.66,8,3.88,43.27,3.88,43.27s3.43,29,1.56,40.8c-1,6.56-2,13.15-2.57,19.77v.13s-5.62,16-9.73,24.69c-.1.22-.21.44-.31.65a12.54,12.54,0,0,0-3.21.71s-5.51,11-11,12.82-3.67,7.81,8.76,5.61,31.2-4,31.2-4l.81-11.22,3.82-4.78-1,11.19,4.07-.8-.54-13.61,6.25-7.82s7.55-6.72-3.67-19.94v.29c-.12-.19-.23-.39-.36-.58v-.06c-1.86-2.88-3.34-8.25-.63-17.78,4.9-17.22,7.75-32.85,7.75-32.85s10.94-41.87-2.21-61.68h.58a33.27,33.27,0,0,1-2.83-8.8q-.1-.54-.18-1.11c9.73-.56,19.28-2.32,27.07-6.12C1008.25,586.91,1003.56,487.55,999.68,471.73Zm-123.53-69.3v.2l-2,.1Zm-6.86.95a2.15,2.15,0,0,0-.9.43,8.85,8.85,0,0,0-1.57,4.11l-3.12-.7s-2.19-.47-5.34-1l-1.49-1.5C861,404.38,865.23,403.88,869.29,403.38Z"/><polygon class="cls-16" points="972.51 743.54 971.33 757.71 975.32 756.91 974.72 741.54 972.51 743.54"/><path class="cls-17" d="M881.49,676.26c-4.81,13.7-3.45,32.19-2.37,41.17.4,3.32.77,5.34.77,5.34s-7.19,16.38-7.79,17-21.16,13.17-21.16,13.17l-14.37,8.39S822,754.94,829,752.74a10.81,10.81,0,0,0,3.77-2.57c7-6.65,15.79-23.18,15.79-23.18s.6-8.39,2.8-12.38,1.4-45.92,1.4-45.92l.17-68.35v-8.91l27.35.2a60.75,60.75,0,0,0,1.18,9,136.62,136.62,0,0,0,3.81,15.16C890.07,631.38,888.07,657.49,881.49,676.26Z"/><path class="cls-6" d="M879.89,722.77s-7.19,16.38-7.79,17-21.16,13.17-21.16,13.17l-14.37,8.39S822,754.94,829,752.74a10.81,10.81,0,0,0,3.77-2.57l.62,4.37,4.79-.2,41-36.89C879.52,720.75,879.89,722.77,879.89,722.77Z"/><path class="cls-18" d="M879.39,718.38l-41.23,37.14-4.79.2-1-7s-8.38,10.78-27,10.18c0,0-11.18,7.39,5.39,7.79s37.73-.6,37.73-.6,14.78-23,27.15-20v17.37h3.8V745.93a15.82,15.82,0,0,0,6.74-10.4,12.77,12.77,0,0,0-4.41-11.68A7.49,7.49,0,0,1,879.39,718.38Z"/><path class="cls-17" d="M976.32,697.62c-2.66,9.5-1.21,14.85.61,17.72v.06a32.89,32.89,0,0,1,4.78,11.67l.16.9-18.76,27.35-10.18,4s-16.37-5.59-13.38-7.19c.75-.39,1.92-2.47,3.26-5.34,4-8.65,9.52-24.61,9.52-24.61v-.13c.58-6.59,1.5-13.16,2.52-19.7,1.83-11.77-1.53-40.66-1.53-40.66s-1.2-35.13-3.8-43.12a65.12,65.12,0,0,1-2.33-12.44c-.54-5-.66-9.12-.66-9.12s10.78-15,30.54,1.2a21.7,21.7,0,0,1,4.13,4.48c13.65,19.42,2.66,62.2,2.66,62.2S981.11,680.45,976.32,697.62Z"/><path class="cls-6" d="M981.9,728l-18.76,27.35-10.18,4s-16.37-5.59-13.38-7.19c.75-.39,1.92-2.47,3.26-5.34,6.93-.06,10.52,6.54,10.52,6.54l8.78-1.4s11.58-22.76,14.18-24.15.4-10.39.4-10.39V715.1c.07.08.13.17.21.25v.06a32.89,32.89,0,0,1,4.78,11.67Z"/><path class="cls-18" d="M954,753.92s-5-9.18-14.58-5.79c0,0-5.39,11-10.78,12.78s-3.59,7.78,8.59,5.59,30.54-4,30.54-4l.8-11.19,12.38-15.77s7.38-6.69-3.6-19.86V718s2.2,9-.4,10.39-14.14,24.16-14.14,24.16Z"/><path class="cls-6" d="M880.29,591.61a60.75,60.75,0,0,0,1.18,9c-11.26-1.65-21.71-.83-28.56-.29v-8.91Z"/><path class="cls-6" d="M982.31,605.18s-16,.78-35.08.94c-.54-5-.66-9.12-.66-9.12s10.78-15,30.54,1.2a21.7,21.7,0,0,1,4.13,4.48A23.78,23.78,0,0,0,982.31,605.18Z"/><path class="cls-18" d="M982.31,603.38s-70.08,3.39-91.44-2.6-42.53-.8-45.72-2.19-.6-23.16,2.2-28.55,18.16-59.9,18.16-59.9l14.78-77.06,15.57-4.29,1.1-.31L924.09,421,944,415.51s39.53,154.33,36.14,165.71a29,29,0,0,0-.58,13.39A33.07,33.07,0,0,0,982.31,603.38Z"/><path class="cls-19" d="M828.77,380.38s-14,15-3.4,23.36,17.57.8,17.57.8Z"/><path class="cls-6" d="M828.77,380.38s-14,15-3.4,23.36,17.57.8,17.57.8Z"/><path class="cls-17" d="M941.88,281.76s-1.64,1.56-4.11,3.86c-3.52,3.29-8.73,8.1-13.35,12.13-6.4,5.57-11.68,9.66-9.79,6.17s1.53-9.57.59-15.26c-.07-.38-.13-.76-.2-1.13a106.83,106.83,0,0,0-3.09-12.36s10.34-13.36,16.06-18.63c2.13-2,3.62-2.82,3.71-1.43.1,1.87,1.5,6,3.24,10.38,0,.14.1.27.16.41,1.16,3,2.47,6.08,3.62,8.74C940.48,278.72,941.88,281.76,941.88,281.76Z"/><path class="cls-6" d="M935.1,265.9a29.7,29.7,0,0,1-19.88,22.76,105.28,105.28,0,0,0-3.29-13.49S931.4,250,931.7,255.11C931.77,257,933.29,261.32,935.1,265.9Z"/><path class="cls-6" d="M913.28,295.38l2.52-3.55s1.67,10.18,7.81,5.69,6.44,33.79,6.44,33.79l-6.59,98.53L875.84,427l1.35-47.61,5.39-24,13.33-34.89L903.84,309Z"/><path class="cls-18" d="M930.05,331.92l-6,89.09-.63,9.44-26.55-1.59-1-.06-20-1.2L877.22,380l5.39-24,13.33-34.89,7.93-11.53,9.44-13.63,2.52-3.54s1.67,10.18,7.81,5.69l.13-.09h0C929.77,294.19,930.05,331.92,930.05,331.92Z"/><path class="cls-5" d="M883.28,347.64s-2.39,5-7.19,4.19-4.79,18-4.79,18-3.19,3-5.39.4-8,6.19-8,6.19L821.57,378s16.17,7.39,13,29.75c0,0,54.9-3.4,56.7-8.59S883.28,347.64,883.28,347.64Z"/><path class="cls-20" d="M883.28,347.64s-2.39,5-7.19,4.19-4.79,18-4.79,18-3.19,3-5.39.4-8,6.19-8,6.19L821.57,378s16.17,7.39,13,29.75c0,0,54.9-3.4,56.7-8.59S883.28,347.64,883.28,347.64Z"/><polygon class="cls-5" points="777.66 389.77 787.25 397.95 866.11 414.52 856.33 404.54 777.66 389.77"/><path class="cls-5" d="M913.43,298.53c-1.31,2-5.06,12.24-8.19,21.18-2.61,7.45-4.79,14-4.79,14s-5.09,33.14-7.69,39.13-1.19,29.35-1.19,29.35l-9.69,57.69s-4.39,29.75-11.17,47.52c-6.69,17.49-14.14,25.69-14.37,26,3-4.06,19.35-84,19.35-84l5.4-100.82s.79-9.58,1.59-17.77,17-19.37,17-19.37l15.62-22.21C916.87,291.28,915.82,294.94,913.43,298.53Z"/><path class="cls-17" d="M872.7,428.1s-23-1-34.14-14.38,25.75-5.34,25.75-5.34l9.59,2.2Z"/><path class="cls-6" d="M980.11,581.23a29,29,0,0,0-.58,13.39c-25.09,1.78-51.93-5-51.93-5-5,4.6-18.17,11.38-18.17,11.38l-7.18-89c-4.59-12-6.39-74.87-6.39-74.87s.41-3.29,1-8.22a1,1,0,0,1,0-.37c1.79-13.77,5.34-39.62,7.08-43.11,2.4-4.8-7.38-17.57-7.38-17.57l4.45-37.95.54-4.58c9.38-4.19,16.57-17.57,16.57-17.57l5.52-9.67h0c6-3.85,6.31,33.88,6.31,33.88l-6,89.09,19.88-5.49S983.5,569.85,980.11,581.23Z"/><path class="cls-5" d="M1005.86,587.38c-27.35,13.58-77.06,1-77.06,1-5,4.6-18.17,11.38-18.17,11.38l-7.19-89c-4.58-12-6.38-74.87-6.38-74.87s5.78-46.91,8.18-51.7c.7-1.4.36-3.48-.47-5.72A72.16,72.16,0,0,1,900.39,345l1.92-16.31.53-4.57c9.39-4.2,16.58-17.58,16.58-17.58l5-8.76,9.2-16.14L938,274l.74.67,5.65,5.12,6,5c7.83,6.6,21.36,18.22,28.34,25.33,6.14,6.26,8.08,30.61,8.64,48.94.37,12.07.15,21.53.15,21.53-6.19,10.19,10,92,10,92C1001.27,488.38,1005.86,587.38,1005.86,587.38Z"/><path class="cls-20" d="M953.36,306.32s-18.77,35.73-16.59,49.31,8.38,28.95,5.39,32.54a11.09,11.09,0,0,1-8.79,4.39c-3,.2-11,5.79-11,6.39s-7.39.6-14,3.4S892,406.74,892,406.74s-19-.6-20.77,1.2-3.59,12.57.2,21.16,8,15,11.18,16.17,23.36-5.59,39.73-7.19,34.14-14.57,34.14-14.57,19.57-7,23-18.77-4.19-76.46-4.19-76.46S969.53,298.13,953.36,306.32Z"/><path class="cls-20" d="M951,303.32s-18.77,35.74-16.57,49.31,8.38,28.95,5.38,32.55a11,11,0,0,1-8.78,4.39c-3,.2-11,5.79-11,6.39s-7.39.6-14,3.39-16.37,4.39-16.37,4.39-19-.6-20.76,1.2-3.6,12.58.2,21.16,8,15,11.18,16.17,23.36-5.59,39.73-7.18,34.14-14.58,34.14-14.58,19.56-7,22.95-18.76-4.19-76.47-4.19-76.47S967.13,295.14,951,303.32Z"/><path class="cls-5" d="M952.77,304.52S934,340.26,936.2,353.83s8.38,28.95,5.39,32.54a11.06,11.06,0,0,1-8.79,4.4c-3,.2-11,5.79-11,6.38s-7.38.6-14,3.4-16.37,4.39-16.37,4.39-19-.6-20.77,1.2-3.59,12.58.2,21.16,8,15,11.18,16.17,23.36-5.59,39.73-7.19,34.14-14.57,34.14-14.57,19.57-7,23-18.77-4.14-76.46-4.14-76.46S968.93,296.38,952.77,304.52Z"/><path class="cls-6" d="M952.36,400.38s-15-3-9.78,2,5.19,9.38,11.58,9.18S952.36,400.38,952.36,400.38Z"/><path class="cls-6" d="M977.71,508s-6.78,4.59,6.19,15.17S977.71,508,977.71,508Z"/><path class="cls-6" d="M964.77,545.69c0,.6-2.4,22,6.58,27.35S964.77,545.69,964.77,545.69Z"/><path class="cls-17" d="M822.19,378c-7.24.25-22.88,2.46-14.77,17.59,7.17,13.39,19.22,4.44,26-2.35A25.59,25.59,0,0,0,822.19,378Z"/><path class="cls-17" d="M833.51,393.09l.3-.31Z"/><path class="cls-6" d="M950.37,285.38c-7.68,5.25-14.12,9.68-15.38,10.6-3.44,2.55-10,17.52-14.23,25.16-3.37,6.15-14.32,7.73-18.45,8.12l.53-4.57c9.39-4.2,16.58-17.58,16.58-17.58L938,274.57l6.39,5.81Z"/><path class="cls-21" d="M950.37,284.78c-7.68,5.25-14.12,9.68-15.38,10.61-3.44,2.54-10,17.51-14.23,25.15-3.37,6.15-14.32,7.73-18.45,8.12l.53-4.57c9.39-4.2,16.58-17.58,16.58-17.58L938,274l6.39,5.79S946.77,281.74,950.37,284.78Z"/><path class="cls-17" d="M935.59,259.3a29.66,29.66,0,1,1-12.86-24.44A29.69,29.69,0,0,1,935.59,259.3Z"/><path class="cls-6" d="M987.35,359.05a26.29,26.29,0,0,1-9.57-10.28c-1.67-3.3-2.78-7.11-5.63-9.45-2.57-2.1-6-2.61-9.2-3.55-10.52-3.11-19.34-12.71-19.67-23.67-.16-5.16,1.45-10.31.72-15.42a17.15,17.15,0,0,0-3.34-7.95,28.38,28.38,0,0,0-2.89-3.11c-1.4-1.32-2.87-2.6-4.15-4a15.29,15.29,0,0,1-2.1-2.85,13,13,0,0,1-1.15-2.65c-2-6.12-.18-13.38-2.38-19.57l-.12-.34c-.83-2.2-2.52-4.4-4.87-4.57s-4.36,1.78-6.6,2.65c-4.69,1.82-9.75-1.28-13.66-4.44s-8.32-6.77-13.29-6.07c-3.29.47-5.89,2.71-8.92,3.87a13,13,0,0,1-2.11.61,29.65,29.65,0,0,1,57.17,11.05,30,30,0,0,1-.65,6.19c0,.14.1.27.16.41,1.16,3,2.47,6.08,3.62,8.74l5.65,5.12,6,5c7.83,6.6,21.36,18.22,28.34,25.33C984.85,316.38,986.77,340.72,987.35,359.05Z"/><path class="cls-22" d="M880.18,229.38c1.43-2.91,2.14-6.17,3.85-8.93,2.51-4,6.89-6.56,11.39-8.11,11.75-4.05,36.58-9.93,44,0,1.46,2,2.67,4.22,4.69,5.6,1.54,1.05,3.4,1.5,5.09,2.29,4.73,2.22,7.75,7.06,9.36,12s2.09,10.24,3.27,15.33c1.51,6.53,4.16,12.72,6.8,18.87,3.11,7.26,6.41,14.79,12.41,19.92,8.19,7,10,16.91,17.6,24.59,9,9.12,8.71,24.17,4.07,36.12-.61,1.57-1.3,3.21-1.06,4.88s1.48,3.19,2.65,4.52l4.92,5.55c-11.64,2.81-24.81-3.27-30.23-13.94-1.67-3.3-2.78-7.1-5.64-9.45-2.56-2.1-6-2.6-9.19-3.54-10.52-3.12-19.34-12.73-19.67-23.69-.16-5.15,1.45-10.3.72-15.4a17.09,17.09,0,0,0-3.35-8c-2.75-3.59-6.9-6-9.14-10-3.79-6.69-.91-15.38-3.64-22.56-.84-2.2-2.52-4.4-4.87-4.57s-4.36,1.78-6.61,2.65c-4.68,1.82-9.74-1.27-13.65-4.44s-8.32-6.77-13.3-6.06c-3.29.46-5.88,2.7-8.91,3.87-2.24.86-6.78,1.63-8.74-.26C868.86,242.81,878.45,232.94,880.18,229.38Z"/><path class="cls-6" d="M981.77,344.77c-1.68-3.3-2.78-7.1-5.64-9.44-2.56-2.1-6-2.61-9.2-3.55-10.51-3.11-19.33-12.72-19.67-23.68-.16-5.15,1.45-10.31.73-15.41a17.16,17.16,0,0,0-3.35-7.95c-2.76-3.59-6.91-6-9.14-10-3.79-6.68-.91-15.37-3.65-22.56-.83-2.19-2.52-4.39-4.86-4.57s-4.37,1.79-6.61,2.66c-4.68,1.82-9.75-1.28-13.65-4.44s-8.33-6.77-13.3-6.07c-3.29.47-5.89,2.71-8.91,3.87-2.24.86-6.79,1.64-8.75-.25-4.12-4,5.47-13.85,7.19-17.39,1.43-2.92,2.14-6.17,3.86-8.93.09-.15.19-.3.29-.45a15.47,15.47,0,0,0-3.29,3.74c-1.71,2.76-2.42,6-3.85,8.93-1.73,3.54-11.32,13.42-7.19,17.39,2,1.9,6.5,1.12,8.74.26,3-1.17,5.62-3.41,8.91-3.87,5-.71,9.4,2.9,13.3,6.06s9,6.26,13.66,4.44c2.24-.87,4.2-2.83,6.6-2.65s4,2.37,4.87,4.57c2.73,7.18-.15,15.87,3.64,22.56,2.24,3.93,6.39,6.39,9.14,10a17.09,17.09,0,0,1,3.35,8c.73,5.1-.88,10.25-.72,15.4.33,11,9.15,20.57,19.67,23.69,3.17.94,6.63,1.44,9.19,3.54,2.87,2.35,4,6.15,5.64,9.45,5.42,10.67,18.59,16.75,30.23,13.94l-2.32-2.62C996.59,359.59,986.38,353.85,981.77,344.77Z"/><path class="cls-6" d="M912.83,299.13c-1.31,2-5.06,12.24-8.19,21.18-2.93-1.14-5.59-8.41-5.59-8.41l15.62-22.22C916.27,291.88,915.22,295.53,912.83,299.13Z"/><path class="cls-21" d="M913.43,298.53c-1.31,2-5.06,12.24-8.19,21.18-2.93-1.13-5.59-8.41-5.59-8.41l15.62-22.21C916.87,291.28,915.82,294.94,913.43,298.53Z"/><path class="cls-23" d="M822.61,400.69,814,373.38a2.55,2.55,0,0,1,1.65-3.21h0a2.56,2.56,0,0,1,3.2,1.66l8.66,27.28-.86,5.71Z"/><path class="cls-24" d="M814.77,371h0a2.55,2.55,0,0,1,3.21,1.66l8.66,27.28L826,404.2l.63.66.86-5.71-8.71-27.28a2.56,2.56,0,0,0-3.2-1.66h0a2.43,2.43,0,0,0-1.33,1A3.14,3.14,0,0,1,814.77,371Z"/><polygon class="cls-25" points="822.61 400.69 827.47 399.15 826.75 403.83 826.61 404.86 825.18 403.38 822.61 400.69"/><path class="cls-26" d="M825.19,403.38a.86.86,0,0,1,.31-.26.44.44,0,0,1,.47,0,1.78,1.78,0,0,1,.17.27.87.87,0,0,0,.62.41l-.15,1Z"/><path class="cls-17" d="M813.9,383.08s17.37-.1,13.28,7.29-10.48,8.28-10.48,8.28Z"/><path class="cls-27" d="M705.87,51.43h-.75c-29.84,0-56.23,15.79-71.41,39.09-15.18-23.3-41.57-39.09-71.41-39.09h-.75a85,85,0,0,0-84.19,84.95c0,27.81,12.18,67.27,35.93,99.74,45.25,61.87,120.42,116,120.42,116s75.17-54.12,120.41-116c23.76-32.47,35.93-71.93,35.93-99.74A85,85,0,0,0,705.87,51.43ZM695.14,240.88a16.85,16.85,0,0,1-15.67-10.82H661.63a5.64,5.64,0,0,1-5.31-3.84l-5.48-16.51L633.5,270.3a5.63,5.63,0,0,1-5.38,4.05h-.35a5.53,5.53,0,0,1-5.2-4.64L604.7,162.23l-13.06,63.6a5.58,5.58,0,0,1-5.41,4.23H561.1a5.59,5.59,0,1,1-.48-11.17h21.21l18.5-85.51a5.61,5.61,0,0,1,11,.46l18.25,109.64,15.54-54.21a5.48,5.48,0,0,1,5.23-4h.11a5.59,5.59,0,0,1,5.3,3.84l9.91,29.81h13.58a16.76,16.76,0,1,1,15.92,22Z"/></svg>