<svg id="Calque_1" data-name="Calque 1" xmlns="http://www.w3.org/2000/svg" viewBox="0 0 809.34 629.88"><defs><style>.cls-1{fill:#ff6b7f;}.cls-2{fill:#f0f0f0;}.cls-3{fill:#fff;}.cls-4{fill:#f2f2f2;}.cls-5{fill:#e6e6e6;}.cls-6{fill:#fda990;}.cls-7{fill:#ffb8b8;}.cls-8{fill:#2f2e41;}.cls-9{fill:#cacaca;}.cls-10{fill:#3f3d56;}.cls-11{fill:#ffb6b6;}.cls-12{fill:#c979aa;}.cls-13{fill:#80cae9;}.cls-14{fill:#9e616a;}</style></defs><path class="cls-1" d="M168,414.31c-36.59-36-52.05-73.6-43.52-105.82,10.95-41.34,59.57-69.92,133.4-78.42l.27,2.37c-72.8,8.38-120.68,36.32-131.36,76.66-8.3,31.36,6.93,68.11,42.88,103.51Z"/><path class="cls-2" d="M521.07,542.18c-45.67,0-95.3-6.79-144.59-19.84-61-16.14-116.85-40.5-161.64-70.44l1.33-2c44.57,29.81,100.21,54,160.92,70.12C432,534.56,487.22,541.29,536.9,539.51l.09,2.38Q529.12,542.18,521.07,542.18Z"/><path class="cls-2" d="M625.84,527.17l-.77-2.26c40.85-13.81,66.39-36.06,73.88-64.34,9.52-35.95-11.16-77.66-58.22-117.46-47.3-40-115.51-73.2-192.06-93.46l.61-2.31c76.89,20.35,145.43,53.72,193,93.94,47.81,40.43,68.75,83,59,119.9C693.56,490.27,667.48,513.09,625.84,527.17Z"/><path class="cls-1" d="M250.79,543.17C161.05,503.38,91.9,451.74,56.08,397.78l2-1.32C93.65,450.05,162.43,501.38,251.76,541Z"/><path class="cls-2" d="M566.3,612.12q-13.89,0-28.25-.62l.11-2.38c71.43,3.09,134.46-5.46,182.27-24.73l.9,2.22C679.61,603.41,626.45,612.12,566.3,612.12Z"/><path class="cls-1" d="M514.23,232.21c-14.83-4.83-30.09-9.32-45.34-13.36-87.8-23.24-174.1-31.49-249.58-23.86l-.24-2.38c75.76-7.65,162.36.62,250.43,23.93,15.3,4.05,30.59,8.56,45.47,13.4Z"/><path class="cls-1" d="M111.94,417.89c-36.6-36-52-73.6-43.52-105.82,10.94-41.34,59.56-69.92,133.39-78.42l.28,2.37C129.28,244.4,81.4,272.34,70.73,312.68c-8.3,31.36,6.93,68.11,42.88,103.51Z"/><path class="cls-1" d="M465,545.76c-45.66,0-95.29-6.79-144.59-19.84-60.95-16.14-116.85-40.5-161.63-70.44l1.33-2c44.56,29.8,100.21,54.05,160.92,70.12,54.85,14.53,110.13,21.26,159.81,19.48l.09,2.38Q473,545.75,465,545.76Z"/><path class="cls-2" d="M569.75,530.75l-.76-2.26c40.84-13.81,66.39-36.06,73.88-64.34,9.51-35.95-11.16-77.66-58.22-117.46-47.3-40-115.51-73.2-192.06-93.46l.61-2.31c76.89,20.35,145.43,53.72,193,93.94,47.8,40.43,68.75,83,59,119.9C637.47,493.85,611.39,516.67,569.75,530.75Z"/><path class="cls-1" d="M194.71,546.75C105,507,35.82,455.32,0,401.36L2,400C37.56,453.63,106.35,505,195.67,544.57Z"/><path class="cls-2" d="M510.21,615.7q-13.87,0-28.24-.62l.1-2.38c71.44,3.09,134.46-5.46,182.28-24.73l.89,2.22C623.53,607,570.36,615.7,510.21,615.7Z"/><path class="cls-1" d="M458.15,235.79c-14.84-4.83-30.09-9.32-45.35-13.36C325,199.19,238.71,190.94,163.23,198.57l-.24-2.38c75.76-7.65,162.36.62,250.42,23.93,15.3,4,30.6,8.56,45.48,13.4Z"/><path class="cls-1" d="M40.68,354C57.83,334.74,85.18,323,110,330a118.69,118.69,0,0,0-46.32,67c-2.68,10.47-4.57,22.4-13.27,28.8-5.42,4-12.6,4.93-19.26,4s-13-3.5-19.18-6.06l-1.67.14C15.08,398.68,23.53,373.2,40.68,354Z"/><path class="cls-3" d="M109.9,330.57a101.4,101.4,0,0,0-53.21,32.65,43.38,43.38,0,0,0-7.37,11.53,25,25,0,0,0-1.48,13.11c.56,4.14,1.6,8.3,1.15,12.5a15.33,15.33,0,0,1-6.51,10.73c-4.35,3.18-9.59,4.61-14.76,5.82-5.74,1.35-11.72,2.67-16.4,6.48-.56.46-1.25-.44-.68-.91,8.14-6.63,19.45-5.78,28.46-10.6,4.2-2.25,7.75-5.78,8.61-10.62.76-4.24-.32-8.53-.92-12.72a26.72,26.72,0,0,1,1-12.86,40.2,40.2,0,0,1,6.89-11.78,98.75,98.75,0,0,1,22.92-20.53,103.62,103.62,0,0,1,32.19-13.93c.71-.17.84,1,.14,1.13Z"/><path class="cls-3" d="M60.84,357.74A15.22,15.22,0,0,1,60.38,338c.46-.57,1.36.12.9.69a14.1,14.1,0,0,0,.47,18.33C62.24,357.59,61.33,358.28,60.84,357.74Z"/><path class="cls-3" d="M47.28,385.8a29.35,29.35,0,0,0,20.39-6.46c.56-.46,1.25.45.68.91a30.47,30.47,0,0,1-21.23,6.67C46.39,386.87,46.55,385.75,47.28,385.8Z"/><path class="cls-3" d="M87.69,338.41a8.6,8.6,0,0,0,7,4.3c.73,0,.57,1.17-.16,1.13a9.66,9.66,0,0,1-7.7-4.74.59.59,0,0,1,.11-.8.57.57,0,0,1,.8.11Z"/><path class="cls-1" d="M145.17,409.86l-1.38,0a114.18,114.18,0,0,0-18.38,1.07c-.47.06-1,.12-1.41.2a119.59,119.59,0,0,0-41.6,14.49,114.64,114.64,0,0,0-14.59,9.93C61.45,440.59,55,446.6,47.51,449.2a20.06,20.06,0,0,1-2.37.7L10.58,426l-.16-.27L9,424.86l.68-.62.4-.36.25-.23.08-.07.23-.21q2-1.75,4-3.49h0C24.91,411.08,36,403.06,47.94,397l1.1-.55a110.08,110.08,0,0,1,16.77-6.76,96.76,96.76,0,0,1,9.62-2.44,81.78,81.78,0,0,1,25.46-1c16.92,2,33,9.43,43.49,22.58Z"/><path class="cls-3" d="M144.79,410.24a101.5,101.5,0,0,0-62.15-6,43.51,43.51,0,0,0-12.82,4.78,25.07,25.07,0,0,0-9.08,9.57c-2,3.64-3.71,7.6-6.61,10.67A15.34,15.34,0,0,1,42.48,434c-5.39-.09-10.43-2.1-15.29-4.24-5.4-2.38-11-4.93-17-4.71-.73,0-.73-1.1,0-1.13,10.49-.4,19,7.09,29.1,8.67,4.71.73,9.67,0,13.27-3.3,3.16-2.92,4.88-7,6.92-10.71A26.85,26.85,0,0,1,68,408.84a40.44,40.44,0,0,1,12.6-5.25A98.57,98.57,0,0,1,111.27,401a103.23,103.23,0,0,1,34.09,8.26c.67.29.09,1.27-.57,1Z"/><path class="cls-3" d="M89.26,402.4a15.23,15.23,0,0,1,11.49-16c.71-.17,1,.92.31,1.1A14.09,14.09,0,0,0,90.4,402.4C90.46,403.12,89.33,403.12,89.26,402.4Z"/><path class="cls-3" d="M61.54,416.64a29.33,29.33,0,0,0,20.16,7.12c.73,0,.73,1.11,0,1.13a30.43,30.43,0,0,1-21-7.45c-.56-.48.25-1.28.8-.8Z"/><path class="cls-3" d="M122.33,403.13a8.62,8.62,0,0,0,3,7.62c.56.47-.24,1.27-.8.8a9.62,9.62,0,0,1-3.29-8.42.57.57,0,1,1,1.13,0Z"/><path class="cls-4" d="M712.66,511.59c-9.68-23.87-31.51-44.1-57.22-45.83a118.73,118.73,0,0,1,21.09,78.73c-1,10.76-3.22,22.62,2.83,31.58,3.76,5.57,10.2,8.88,16.78,10.26s13.38,1.06,20.1.73l1.53.7C721.75,562.31,722.35,535.47,712.66,511.59Z"/><path class="cls-3" d="M655.33,466.29a101.41,101.41,0,0,1,39.15,48.63,43.75,43.75,0,0,1,3.06,13.34,25.06,25.06,0,0,1-3,12.84c-1.92,3.71-4.3,7.29-5.28,11.39a15.33,15.33,0,0,0,2.51,12.3c3,4.46,7.49,7.56,12,10.44,4.95,3.2,10.14,6.45,13.27,11.61.38.63,1.33,0,.95-.62-5.44-9-16.38-12-23.24-19.55-3.2-3.53-5.36-8-4.54-12.9.71-4.24,3.17-7.93,5.14-11.67a26.76,26.76,0,0,0,3.41-12.44,40.47,40.47,0,0,0-2.54-13.42,98.37,98.37,0,0,0-14.68-27,103.36,103.36,0,0,0-25.64-23.94c-.61-.4-1.11.62-.51,1Z"/><path class="cls-3" d="M692.4,508.36a15.21,15.21,0,0,0,7.07-18.4c-.24-.69-1.33-.34-1.08.35a14.09,14.09,0,0,1-6.61,17.1c-.64.35,0,1.3.62.95Z"/><path class="cls-3" d="M695.75,539.35a29.3,29.3,0,0,1-17-12.93c-.38-.62-1.33,0-1,.62a30.47,30.47,0,0,0,17.75,13.42c.7.2.93-.91.23-1.11Z"/><path class="cls-3" d="M673.62,481.14a8.62,8.62,0,0,1-8,1.71c-.7-.2-.92.91-.23,1.12a9.67,9.67,0,0,0,8.85-1.88.59.59,0,0,0,.17-.79.58.58,0,0,0-.79-.16Z"/><path class="cls-4" d="M595.47,529.11l1.31.44a113.11,113.11,0,0,1,16.94,7.18l1.27.66A119.77,119.77,0,0,1,649.3,565a116.31,116.31,0,0,1,10.4,14.26C664,586.2,668.08,594,674.22,599a19.92,19.92,0,0,0,2,1.45l40.58-10.87c.07-.07.16-.13.24-.2l1.64-.36-.44-.82-.25-.47a2.19,2.19,0,0,1-.16-.3l-.06-.1c0-.09-.1-.18-.14-.27-.85-1.54-1.72-3.09-2.59-4.63l0,0c-6.7-11.72-14.44-23-23.65-32.73-.28-.29-.56-.59-.85-.88a110.12,110.12,0,0,0-13.53-12,97.07,97.07,0,0,0-8.24-5.53,81.52,81.52,0,0,0-23.65-9.47c-16.61-3.79-34.25-2.22-48.55,6.64Z"/><path class="cls-3" d="M595.7,529.6a101.47,101.47,0,0,1,60.53,15.26,43.65,43.65,0,0,1,10.48,8.81A25.13,25.13,0,0,1,672,565.74c.7,4.11.94,8.4,2.64,12.27a15.31,15.31,0,0,0,9.41,8.3c5.1,1.74,10.53,1.53,15.82,1.15,5.88-.43,12-1,17.59,1.28.68.27,1.06-.8.38-1.07-9.75-3.9-20.29.29-30.32-1.62-4.69-.89-9.13-3.2-11.4-7.56-2-3.82-2.24-8.24-2.92-12.41a26.65,26.65,0,0,0-4.76-12,40.42,40.42,0,0,0-10.11-9.19,98.66,98.66,0,0,0-28-12.74,103.2,103.2,0,0,0-34.88-3.67c-.73,0-.51,1.16.21,1.11Z"/><path class="cls-3" d="M650.63,540.87a15.22,15.22,0,0,0-5.44-18.94c-.61-.41-1.27.52-.65.93a14.09,14.09,0,0,1,5,17.63c-.31.67.76,1,1.07.38Z"/><path class="cls-3" d="M672,563.61a29.33,29.33,0,0,1-21.38-.08c-.68-.26-1.06.8-.38,1.07a30.52,30.52,0,0,0,22.25,0c.68-.26.19-1.29-.49-1Z"/><path class="cls-3" d="M619.24,530.45a8.61,8.61,0,0,1-5.35,6.18c-.69.26-.2,1.28.48,1a9.67,9.67,0,0,0,5.94-6.83.59.59,0,0,0-.35-.72.56.56,0,0,0-.72.34Z"/><circle class="cls-1" cx="524.68" cy="583.34" r="9.55"/><circle class="cls-5" cx="558.5" cy="420.75" r="9.55"/><circle class="cls-1" cx="380.87" cy="155.96" r="9.55"/><path class="cls-4" d="M180.83,522.15c0,2.43.08,4.86.25,7.27.18,2.88.49,5.74.91,8.58a106.86,106.86,0,0,0,8,27.73l.6,1.32.3.66c.1.22.21.44.31.65s.27.57.41.85.34.7.52,1c0,0,0,.09.07.14.15.3.29.59.45.89a1.18,1.18,0,0,0,.1.19l.53,1,.59,1.09c.48.89,1,1.77,1.49,2.65.15.26.3.52.46.78s.28.48.43.72l.3.49.49.8,1.12,1.77h0c.17.27.35.54.53.8h0c.53.8,1.08,1.6,1.63,2.39h0c.44.64.9,1.26,1.35,1.88h0l.89,1.18.74,1,.16.2h0l.21.26q1.59,2,3.28,4l.18.21c.06.07.13.14.19.22l.29.33.29.33a108.63,108.63,0,0,0,19.83,17.49c1,.67,2,1.32,2.95,1.95l.75.47.22.15.41.25.4.24c.53.33,1.07.65,1.61,1l.41.24.41.23h0q1,.58,2,1.14c.37.2.75.41,1.13.6.86.47,1.73.92,2.6,1.35l.94.46.78.37.22.11.65.3.71.33.8.35c1,.45,2,.88,3,1.29a107.41,107.41,0,0,0,11.08,3.84l.53.15q2.42.68,4.86,1.23c2.85.66,5.72,1.2,8.63,1.62h0l1,.15h.11l1.15.15h.08l1.09.13,1.17.12.9.09h.08l.81.07h0l.7.06c2.79.22,5.59.32,8.43.32,3.07,0,6.12-.12,9.13-.38h0l1.93-.18.5-.05h.1l.16,0h.08l.67-.07.75-.09.75-.1.17,0,.54-.08.26,0,.53-.08h0a106,106,0,0,0,16.2-3.65l.84-.26h0l.25-.08c.75-.24,1.49-.49,2.23-.75,1-.34,2-.71,3-1.09l.81-.32,1.63-.65c.92-.37,1.84-.76,2.75-1.16s1.69-.76,2.53-1.16c0,0,.05,0,.07,0l.56-.27h0a108.48,108.48,0,0,0,13.29-7.59q2-1.37,4-2.82c1.06-.79,2.1-1.59,3.14-2.41A109,109,0,0,0,369.77,593h0c.31-.34.6-.69.9-1l.13-.14.56-.67h0c.25-.29.5-.59.74-.89l.16-.19h0l.59-.73.29-.36h0c.59-.74,1.16-1.48,1.73-2.24l.46-.62c.72-1,1.42-2,2.1-2.95h0l.77-1.12.75-1.14.76-1.19,0-.06c.25-.38.5-.78.74-1.17l.57-.94c.12-.21.25-.42.37-.64l.13-.21.84-1.47c.33-.57.65-1.15,1-1.73.12-.24.25-.48.38-.72.05-.08.09-.16.13-.24.15-.28.3-.57.44-.86l.45-.86.43-.86.32-.66a.05.05,0,0,1,0-.05c0-.11.1-.21.14-.31l0-.05c.11-.22.21-.45.32-.67s.27-.59.41-.88.19-.41.28-.62.27-.58.39-.88.27-.6.4-.91c0-.08.07-.16.1-.23s.12-.28.18-.42c.16-.37.32-.75.47-1.12s.35-.85.51-1.27.31-.79.46-1.19l.06-.14a109.2,109.2,0,0,0,5.28-18.93h0q1-5.53,1.43-11.14c0-.21,0-.41,0-.61.18-2.53.26-5.07.26-7.62,0-1.13,0-2.25-.05-3.37a107.2,107.2,0,0,0-23.78-64.2l-1-1.2c-.33-.4-.67-.79-1-1.18a107.75,107.75,0,0,0-173,12.43c-.49.78-1,1.57-1.45,2.36s-.94,1.6-1.4,2.41A107.21,107.21,0,0,0,180.83,522.15Z"/><path class="cls-3" d="M284.28,451.68a253.34,253.34,0,0,0,54.15,7.81,65.67,65.67,0,0,0,8.3-.05c6.07-.51,11.27-2.42,17-3.46,2.79-.5,5.89-.87,8.69-1.41-.65-.8-1.31-1.59-2-2.38-6,.51-12.17,2.18-18.29,3-10.39,1.32-22-.15-29.92-3.79-3.82-1.77-6.75-4-10.56-5.74a4.85,4.85,0,0,0-1.66-.51,5.84,5.84,0,0,0-3.13.81c-6.39,3.23-15.67,5.85-24.28,4.41C282,450.83,283.23,451.4,284.28,451.68Z"/><path class="cls-3" d="M246.17,463l-.24,0a5.66,5.66,0,0,0,.93-.7Z"/><path class="cls-3" d="M194.61,469.4q5.38.44,10.85.64a69.48,69.48,0,0,0,8.29-.05c6.07-.52,11.27-2.42,17.06-3.46,5.31-1,11.75-1.42,15.12-3.53-8.7-1.51-17.73,1.56-26.71,2.7a63.69,63.69,0,0,1-21.76-1.08Q196,467,194.61,469.4Z"/><path class="cls-6" d="M238.13,617.36c.86.47,1.73.92,2.6,1.35l.94.46.78.37.22.11.65.3.71.33.8.35c1,.45,2,.88,3,1.29a107.41,107.41,0,0,0,11.08,3.84l.53.15q2.42.68,4.86,1.23c2.85.66,5.72,1.2,8.63,1.62h0l1,.15h.11l1.15.15h.08l1.09.13,1.17.12.9.09h.08l.81.07h0l.7.06c2.79.22,5.59.32,8.43.32,3.07,0,6.12-.12,9.13-.38h0l1.93-.18.5-.05h.1l.16,0h.08l.67-.07.75-.09.75-.1.17,0,.54-.08.26,0,.53-.08h0a106,106,0,0,0,16.2-3.65l.84-.26a40.18,40.18,0,0,0-22-27.86,9.61,9.61,0,0,0,2.73-4.86,9.32,9.32,0,0,0-1.28-7,9,9,0,0,0-5.66-3.88l-14.82-3.1a9.3,9.3,0,0,0-11,9.42C254.89,597.05,244.62,606.9,238.13,617.36Z"/><circle class="cls-7" cx="281.88" cy="541.4" r="30.88"/><path class="cls-8" d="M262.64,568c-3.29-2.25-6.66-6.57-8.9-9.81a37,37,0,0,1-5.72-29.6,11.29,11.29,0,0,1,2.65-5.45c1.46-1.44,3.83-2.12,5.61-1.1a10.13,10.13,0,0,1,.41-8,17.83,17.83,0,0,1,5.28-6.29,29.73,29.73,0,0,1,30.28-3.59c1.93.9-1.24-6,.78-5.34a8.19,8.19,0,0,0,6.21-.11c1.9-.95,8.19,4.72,7.47,2.73a9.38,9.38,0,0,1,4.66,12.41,9.48,9.48,0,0,1-2.49,3.29c-1.6,1.35-3.59,2.12-5.33,3.26a15.3,15.3,0,0,0-4.68,19.74,20.28,20.28,0,0,0-6-2.59A6.87,6.87,0,0,0,286.8,539a7.71,7.71,0,0,0-1.87,5.81c.07,2.1.57,4.16.63,6.26.16,6.15,3.46,17.84-1.31,21.11C280.49,574.76,267.13,571.09,262.64,568Z"/><path class="cls-9" d="M808.33,37.3H1a1,1,0,0,1,0-2.07H808.33a1,1,0,0,1,0,2.07Z"/><ellipse class="cls-10" cx="23.83" cy="11.4" rx="11.15" ry="11.4"/><ellipse class="cls-10" cx="62.34" cy="11.4" rx="11.15" ry="11.4"/><ellipse class="cls-10" cx="100.85" cy="11.4" rx="11.15" ry="11.4"/><path class="cls-10" d="M785.25,7H757.89a2.07,2.07,0,0,1,0-4.14h27.36a2.07,2.07,0,0,1,0,4.14Z"/><path class="cls-10" d="M785.25,14.74H757.89a2.07,2.07,0,0,1,0-4.14h27.36a2.07,2.07,0,0,1,0,4.14Z"/><path class="cls-10" d="M785.25,22.51H757.89a2.07,2.07,0,0,1,0-4.14h27.36a2.07,2.07,0,0,1,0,4.14Z"/><path class="cls-3" d="M303.11,386.86a5.11,5.11,0,0,1-1.89-.39,4.78,4.78,0,0,1-3-4.49v-4.89a3.89,3.89,0,0,0-3.87-3.87,4.87,4.87,0,0,1-4.87-4.86v-67a4.87,4.87,0,0,1,4.87-4.86H516.18A4.87,4.87,0,0,1,521,301.4v67a4.87,4.87,0,0,1-4.86,4.86H320.32a3.83,3.83,0,0,0-2.73,1.14l-11.07,11.06A4.82,4.82,0,0,1,303.11,386.86Z"/><path class="cls-10" d="M303.11,387.86a5.9,5.9,0,0,1-2.27-.46,5.77,5.77,0,0,1-3.62-5.42v-4.89a2.89,2.89,0,0,0-2.87-2.87,5.87,5.87,0,0,1-5.87-5.86v-67a5.87,5.87,0,0,1,5.87-5.86H516.18A5.86,5.86,0,0,1,522,301.4v67a5.86,5.86,0,0,1-5.86,5.86H320.32a2.87,2.87,0,0,0-2,.84l-11.06,11.07A5.83,5.83,0,0,1,303.11,387.86Zm-8.76-90.32a3.88,3.88,0,0,0-3.87,3.86v67a3.88,3.88,0,0,0,3.87,3.86,4.88,4.88,0,0,1,4.87,4.87V382a3.87,3.87,0,0,0,6.6,2.73l11.06-11.06a4.83,4.83,0,0,1,3.44-1.43H516.18a3.86,3.86,0,0,0,3.86-3.86v-67a3.86,3.86,0,0,0-3.86-3.86Z"/><path class="cls-1" d="M497.11,326.85H317.24a2.59,2.59,0,0,1,0-5.18H497.11a2.59,2.59,0,1,1,0,5.18Z"/><path class="cls-5" d="M496.78,337.86H317.24a2.6,2.6,0,0,1,0-5.19H496.78a2.6,2.6,0,0,1,0,5.19Z"/><path class="cls-5" d="M496.61,348.86H317.24a2.59,2.59,0,0,1,0-5.18H496.61a2.59,2.59,0,1,1,0,5.18Z"/><path class="cls-4" d="M780.39,286.15c0,2.43-.08,4.86-.25,7.27-.18,2.88-.49,5.74-.91,8.58a107.65,107.65,0,0,1-8,27.73l-.6,1.32-.3.66c-.1.22-.21.44-.31.65s-.27.57-.41.85-.34.7-.52,1.05l-.07.14c-.15.3-.29.59-.45.89,0,.06-.07.12-.1.19l-.53,1-.59,1.09c-.48.89-1,1.77-1.49,2.65-.15.26-.3.52-.46.78s-.28.48-.43.72l-.3.49-.49.8L763,344.81h0c-.17.27-.35.54-.53.8h0c-.53.8-1.08,1.6-1.63,2.39h0c-.44.64-.9,1.26-1.35,1.88h0l-.89,1.18-.74,1-.16.2h0l-.21.26c-1.06,1.36-2.16,2.69-3.28,4l-.18.21c-.06.07-.13.14-.19.22l-.29.33-.29.33a109.67,109.67,0,0,1-19.83,17.49c-1,.67-2,1.32-3,1.95l-.75.47-.22.15-.41.25-.4.24c-.53.33-1.07.65-1.61,1l-.41.24-.41.23h0q-1,.58-2,1.14c-.37.2-.75.41-1.13.6-.86.47-1.73.92-2.6,1.35l-.94.46-.78.37-.22.11-.65.3-.71.33-.8.35c-1,.45-2,.88-3,1.29a108.24,108.24,0,0,1-11.08,3.84l-.53.15q-2.41.68-4.86,1.23-4.27,1-8.63,1.62h0l-1,.15h-.11l-1.15.15h-.08l-1.09.13-1.17.12-.9.09h-.08l-.81.07h0l-.7.06c-2.79.22-5.59.32-8.43.32-3.07,0-6.12-.12-9.13-.38h0l-1.93-.18-.5-.05H661l-.16,0h-.08l-.67-.07-.75-.09-.75-.1-.17,0-.54-.08-.26,0-.53-.08h0a105.44,105.44,0,0,1-16.2-3.65l-.84-.26h0l-.25-.08c-.75-.24-1.49-.49-2.23-.75-1-.34-2-.71-3-1.09l-.81-.32L632,386c-.92-.37-1.84-.76-2.75-1.16s-1.69-.76-2.53-1.16c0,0-.05,0-.07,0l-.56-.27h0a107,107,0,0,1-13.29-7.59q-2-1.37-4-2.82c-1.06-.79-2.1-1.59-3.14-2.41A108.32,108.32,0,0,1,591.45,357h0c-.31-.34-.6-.69-.9-1l-.13-.14-.56-.67h0c-.25-.29-.5-.59-.74-.89L589,354h0l-.59-.73-.29-.36h0c-.59-.74-1.16-1.48-1.73-2.24l-.46-.62c-.72-1-1.42-2-2.1-2.95h0L583,346l-.75-1.14-.76-1.19,0-.06c-.25-.38-.5-.78-.74-1.17l-.57-.94c-.12-.21-.25-.42-.37-.64a1.2,1.2,0,0,1-.13-.21l-.84-1.47c-.33-.57-.65-1.15-1-1.73-.12-.24-.25-.48-.38-.72-.05-.08-.09-.16-.13-.24-.15-.28-.3-.57-.44-.86l-.45-.86c-.14-.28-.29-.57-.43-.86l-.32-.66,0-.05c0-.11-.1-.21-.14-.31a.09.09,0,0,1,0,0c-.11-.22-.21-.45-.32-.67s-.27-.59-.41-.88-.19-.41-.28-.62-.27-.58-.39-.88-.27-.6-.4-.91a1.46,1.46,0,0,1-.1-.23c-.07-.14-.12-.28-.18-.42-.16-.37-.32-.75-.47-1.12s-.35-.85-.51-1.27-.31-.79-.46-1.19l-.06-.14a108.32,108.32,0,0,1-5.28-18.93h0a107.36,107.36,0,0,1-1.43-11.14c0-.21,0-.41,0-.61-.18-2.53-.26-5.07-.26-7.62,0-1.13,0-2.25.05-3.37a107.14,107.14,0,0,1,23.78-64.2l1-1.2c.33-.4.67-.79,1-1.18a107.75,107.75,0,0,1,173,12.43c.49.78,1,1.57,1.45,2.36s.94,1.6,1.4,2.41A107.42,107.42,0,0,1,780.39,286.15Z"/><path class="cls-3" d="M676.93,215.68a253.34,253.34,0,0,1-54.15,7.81,65.68,65.68,0,0,1-8.3-.05c-6.07-.51-11.26-2.42-17.05-3.46-2.79-.5-5.89-.87-8.69-1.41.65-.8,1.31-1.59,2-2.38,6,.51,12.18,2.18,18.29,3,10.4,1.32,22-.15,29.92-3.79,3.82-1.77,6.75-4,10.56-5.74a4.85,4.85,0,0,1,1.66-.51,5.84,5.84,0,0,1,3.13.81c6.39,3.23,15.67,5.85,24.28,4.41C679.2,214.83,678,215.4,676.93,215.68Z"/><path class="cls-3" d="M715,227l.24,0a5.66,5.66,0,0,1-.93-.7Z"/><path class="cls-3" d="M766.6,233.4q-5.39.43-10.85.64a69.48,69.48,0,0,1-8.29,0c-6.07-.52-11.27-2.42-17.06-3.46-5.3-1-11.75-1.42-15.12-3.53,8.71-1.51,17.73,1.56,26.71,2.7a63.69,63.69,0,0,0,21.76-1.08C764.74,230.19,765.7,231.78,766.6,233.4Z"/><ellipse class="cls-11" cx="660.5" cy="300.21" rx="32.36" ry="33.08"/><path class="cls-12" d="M723.09,381.36c-.86.47-1.73.92-2.6,1.35l-.94.46-.78.37-.22.11-.65.3-.71.33-.8.35c-1,.45-2,.88-3,1.29a108.24,108.24,0,0,1-11.08,3.84l-.53.15q-2.41.68-4.86,1.23-4.27,1-8.63,1.62h0l-1,.15h-.11l-1.15.15h-.08l-1.09.13-1.17.12-.9.09h-.08l-.81.07h0l-.7.06c-2.79.22-5.59.32-8.43.32-3.07,0-6.12-.12-9.13-.38h0l-1.93-.18-.5-.05H661l-.16,0h-.08l-.67-.07-.75-.09-.75-.1-.17,0-.54-.08-.26,0-.53-.08h0a105.44,105.44,0,0,1-16.2-3.65l-.84-.26A40.13,40.13,0,0,1,662,361a9.47,9.47,0,0,1-2.73-4.86,9.23,9.23,0,0,1,1.28-7,8.9,8.9,0,0,1,5.66-3.88l14.82-3.1a9.22,9.22,0,0,1,10.8,7.2,10.31,10.31,0,0,1,.2,2.22C706.33,361.05,716.6,370.9,723.09,381.36Z"/><path class="cls-8" d="M747.09,285.86c-5.5-6.41-8.12-14.92-12.51-22.21s-12.05-13.8-20.14-12.1c-5.57,1.16-9.88,6.08-12.06,11.56s-2.58,11.53-3,17.45c.14-12.17-7.88-24-18.93-27.85s-24.26.45-31.2,10.23a16.86,16.86,0,0,0-22.4-.47c-6.21,5.54-7.58,16.11-3,23.18s14.45,9.72,21.71,5.79l2.57,2.36c-1.45,5.05,1.35,11,6.06,12.92,3.82,1.54,9.2,1.28,10.63,5.29,1,2.8-.86,5.78-2.85,7.94s-4.34,4.37-4.58,7.34c-.36,4.49,4.28,7.64,8.5,8.59,10.17,2.28,21.46-2.43,27.32-11.41.11-.17.24-.34.37-.52a39.28,39.28,0,0,0,7.9-30c-.33-2.07,0-3.62,1.43-4.11,6.19-2.12,23.51,2.34,28.75,6.36s9.44,9.36,14.49,13.65,11.48,7.6,17.9,6.43c5.13-.94,9.5-4.66,12.44-9.16s4.63-9.74,6.14-14.95C771.29,298.7,755.75,296,747.09,285.86Z"/><path class="cls-4" d="M82.83,219.15c0,2.43.08,4.86.25,7.27.18,2.88.49,5.74.91,8.58a106.86,106.86,0,0,0,8,27.73l.6,1.32.3.66c.1.22.21.44.31.65s.27.57.41.85.34.7.52,1.05c0,0,0,.09.07.14.15.3.29.59.45.89a1.18,1.18,0,0,0,.1.19l.53,1,.59,1.09c.48.89,1,1.77,1.49,2.65.15.26.3.52.46.78s.28.48.43.72l.3.49.49.8,1.12,1.77h0c.17.27.35.54.53.8h0c.53.8,1.08,1.6,1.63,2.39h0c.44.64.9,1.26,1.35,1.88h0l.89,1.18.74,1,.16.2h0l.21.26q1.59,2,3.28,4l.18.21c.06.07.13.14.19.22l.29.33.29.33a109,109,0,0,0,19.83,17.49c1,.67,2,1.32,2.95,1.95l.75.47.22.15.41.25.4.24c.53.33,1.07.65,1.61,1l.41.24.41.23h0q1,.58,2,1.14c.37.2.75.41,1.13.6.86.47,1.73.92,2.6,1.35l.94.46.78.37.22.11.65.3.71.33.8.35c1,.45,2,.88,3,1.29a107.41,107.41,0,0,0,11.08,3.84l.53.15q2.41.68,4.86,1.23c2.85.66,5.72,1.2,8.63,1.62h0l1,.15h.11l1.15.15h.08l1.09.13,1.17.12.9.09h.08l.81.07h0l.7.06c2.79.22,5.59.32,8.43.32,3.07,0,6.12-.12,9.13-.38h0l1.93-.18.5-.05h.1l.16,0h.08l.67-.07.75-.09.75-.1.17,0,.54-.08.26,0,.53-.08h0a106,106,0,0,0,16.2-3.65l.84-.26h0l.25-.08c.75-.24,1.49-.49,2.23-.75,1-.34,2-.71,3-1.09l.81-.32,1.63-.65c.92-.37,1.84-.76,2.75-1.16s1.69-.76,2.53-1.16c0,0,0,0,.07,0l.56-.27h0a108.48,108.48,0,0,0,13.29-7.59q2-1.37,4-2.82c1.06-.79,2.1-1.59,3.14-2.41A109,109,0,0,0,271.77,290h0c.31-.34.6-.69.9-1l.13-.14.56-.67h0c.25-.29.5-.59.74-.89l.16-.19h0l.59-.73.29-.36h0c.59-.74,1.16-1.48,1.73-2.24l.46-.62c.72-1,1.42-2,2.1-2.95h0l.77-1.12.75-1.14.76-1.19,0-.06c.25-.38.5-.78.74-1.17l.57-.94c.12-.21.25-.42.37-.64l.13-.21.84-1.47c.33-.57.65-1.15,1-1.73.12-.24.25-.48.38-.72.05-.08.09-.16.13-.24.15-.28.3-.57.44-.86l.45-.86.43-.86.32-.66a.05.05,0,0,1,0-.05c0-.11.1-.21.14-.31l0,0c.11-.22.21-.45.32-.67s.27-.59.41-.88.19-.41.28-.62.27-.58.39-.88.27-.6.4-.91c0-.08.07-.16.1-.23s.12-.28.18-.42c.16-.37.32-.75.47-1.12s.35-.85.51-1.27.31-.79.46-1.19l.06-.14a109.2,109.2,0,0,0,5.28-18.93h0q1-5.53,1.43-11.14c0-.21,0-.41,0-.61.18-2.53.26-5.07.26-7.62,0-1.13,0-2.25-.05-3.37a107.2,107.2,0,0,0-23.78-64.2l-1-1.2c-.33-.4-.67-.79-1-1.18a107.73,107.73,0,0,0-173,12.43c-.49.78-1,1.57-1.45,2.36s-.94,1.6-1.4,2.41A107.21,107.21,0,0,0,82.83,219.15Z"/><path class="cls-3" d="M186.28,148.68a253.34,253.34,0,0,0,54.15,7.81,65.67,65.67,0,0,0,8.3-.05c6.07-.51,11.27-2.42,17-3.46,2.79-.5,5.89-.87,8.69-1.41-.65-.8-1.31-1.59-2-2.38-6,.51-12.17,2.18-18.29,3-10.39,1.32-22-.15-29.92-3.79-3.82-1.77-6.75-4-10.56-5.74a4.85,4.85,0,0,0-1.66-.51,5.84,5.84,0,0,0-3.13.81c-6.39,3.23-15.67,5.85-24.28,4.41C184,147.83,185.23,148.4,186.28,148.68Z"/><path class="cls-3" d="M148.17,160l-.24,0a5.66,5.66,0,0,0,.93-.7Z"/><path class="cls-3" d="M96.61,166.4q5.39.43,10.85.64a69.48,69.48,0,0,0,8.29,0c6.07-.52,11.27-2.42,17.06-3.46,5.31-1,11.75-1.42,15.12-3.53-8.7-1.51-17.73,1.56-26.71,2.7a63.69,63.69,0,0,1-21.76-1.08Q98,164,96.61,166.4Z"/><path class="cls-13" d="M140.13,314.36c.86.47,1.73.92,2.6,1.35l.94.46.78.37.22.11.65.3.71.33.8.35c1,.45,2,.88,3,1.29a107.41,107.41,0,0,0,11.08,3.84l.53.15q2.41.68,4.86,1.23c2.85.66,5.72,1.2,8.63,1.62h0l1,.15h.11l1.15.15h.08l1.09.13,1.17.12.9.09h.08l.81.07h0l.7.06c2.79.22,5.59.32,8.43.32,3.07,0,6.12-.12,9.13-.38h0l1.93-.18.5-.05h.1l.16,0h.08l.67-.07.75-.09.75-.1.17,0,.54-.08.26,0,.53-.08h0a106,106,0,0,0,16.2-3.65l.84-.26a40.18,40.18,0,0,0-22-27.86,9.61,9.61,0,0,0,2.73-4.86,9.32,9.32,0,0,0-1.28-7,9,9,0,0,0-5.66-3.88l-14.82-3.1a9.3,9.3,0,0,0-11,9.42C156.89,294.05,146.62,303.9,140.13,314.36Z"/><circle class="cls-14" cx="198.75" cy="229.05" r="36.07"/><path class="cls-8" d="M193.63,263.19c-9,2.44-19-.8-26-6.95s-11.45-14.87-14-23.87c-1.86-6.59-2.75-13.91.19-20.1s10.84-10.37,16.93-7.24c-3.76-4.38-1.88-11.63,2.51-15.38s10.43-4.82,16.17-5.41c8.34-.85,16.95-1,24.88,1.75s15.14,8.61,17.62,16.61A12.64,12.64,0,0,0,247,199.2a11.44,11.44,0,0,1-6.31,12.41l12.15-3.94c2.09,4.43-1.57,9.9-6.25,11.32s-9.74-.13-14.19-2.18-8.75-4.63-13.58-5.43-10.5.75-12.73,5.11c-1.17,2.28-1.23,4.95-1.91,7.42s-2.4,5-4.95,5.23c-1.62.13-3.2-.73-4.81-.55a5.16,5.16,0,0,0-4.05,4,15.24,15.24,0,0,0,0,6l3.09,23.6Z"/></svg>